<svg version="1.1" xmlns="http://www.w3.org/2000/svg" viewBox="-19.36034353230426 -37.95800567578489 36.891856192204976 72.20201659979867" fill="none" stroke="black" stroke-width="0.6%" vector-effect="non-scaling-stroke">
    <path d="M -17.45693 -21.08397 A 17 14.67401 0 0 1 0.7689 -36.26014 A 4.5 3.8843 0 0 1 7.48286 -34.59502 A 17 14.67401 360 0 1 15.50691 -16.60773 A 17 14.67401 360 0 1 13.5962 -13.38252 A 4.5 3.8843 0 0 1 13.61252 -13.05199 A 4.5 3.8843 0 0 1 8.5686 -9.19618 A 17 14.67401 360 0 1 -15.77056 -15.2325 A 4.5 3.8843 0 0 1 -18.36034 -18.74947 A 4.5 3.8843 0 0 1 -17.45693 -21.08397 Z" />
    <path d="M -12.12328 -19.12246 A 1.99 1.71772 180 0 0 -16.04443 -18.70779 A 1.99 1.71772 180 1 0 -12.06443 -18.70779 A 1.99 1.71772 180 0 0 -12.12328 -19.12246 Z" />
    <path d="M 7.86976 -14.16401 A 1.99 1.71772 180 0 0 7.26137 -12.92775 A 1.99 1.71772 180 0 0 11.24137 -12.92775 A 1.99 1.71772 180 0 0 7.86976 -14.16401 Z" />
    <path d="M -7.16825 -27.61999 A 9.65 8.32966 360 0 1 9.18151 -21.62506 A 9.65 8.32966 360 0 1 -10.11849 -21.62506 A 9.65 8.32966 360 0 1 -7.16825 -27.61999 Z" />
    <path d="M 2.84805 -31.5887 A 1.99 1.71772 180 0 0 5.38759 -33.23963 A 1.99 1.71772 180 0 0 1.40759 -33.23963 A 1.99 1.71772 180 0 0 2.84805 -31.5887 Z" />
    <path d="M -15.77056 -15.2325 C -15.75 -15.2 -15.74 -15.16 -15.7204 -15.12412 C -15.7 -15.09 -15.69 -15.05 -15.67052 -15.01645 C -15.64 -14.94 -15.6 -14.87 -15.57162 -14.80317 C -15.54 -14.73 -15.51 -14.66 -15.47381 -14.59251 C -15.44 -14.52 -15.41 -14.45 -15.37707 -14.38433 C -15.34 -14.32 -15.31 -14.25 -15.28134 -14.1785 C -15.25 -14.11 -15.22 -14.04 -15.18661 -13.97489 C -15.16 -13.91 -15.12 -13.84 -15.09285 -13.77342 C -15.06 -13.71 -15.03 -13.64 -15.00003 -13.57397 C -14.97 -13.51 -14.94 -13.44 -14.90812 -13.37648 C -14.88 -13.31 -14.85 -13.25 -14.81711 -13.18084 C -14.79 -13.12 -14.76 -13.05 -14.72697 -12.987 C -14.7 -12.92 -14.67 -12.86 -14.63769 -12.79489 C -14.61 -12.73 -14.58 -12.67 -14.54924 -12.60443 C -14.52 -12.54 -14.49 -12.48 -14.46162 -12.41557 C -14.43 -12.35 -14.4 -12.29 -14.37481 -12.22826 C -14.35 -12.17 -14.32 -12.1 -14.28879 -12.04245 C -14.25 -11.97 -14.22 -11.89 -14.18544 -11.81887 C -14.15 -11.74 -14.12 -11.67 -14.08322 -11.59734 C -14.05 -11.52 -14.02 -11.45 -13.98211 -11.3778 C -13.95 -11.3 -13.92 -11.23 -13.88209 -11.16019 C -13.85 -11.09 -13.82 -11.02 -13.78315 -10.94443 C -13.75 -10.87 -13.72 -10.8 -13.68526 -10.73047 C -13.65 -10.66 -13.62 -10.59 -13.58843 -10.51827 C -13.56 -10.45 -13.52 -10.38 -13.49263 -10.30776 C -13.46 -10.24 -13.43 -10.17 -13.39784 -10.0989 C -13.37 -10.03 -13.34 -9.96 -13.30407 -9.89166 C -13.24 -9.75 -13.18 -9.62 -13.1195 -9.48186 C -13 -9.21 -12.88 -8.94 -12.76204 -8.68 C -12.52 -8.14 -12.29 -7.62 -12.07656 -7.10495" />
    <path d="M -13.28439 -6.81869 A 4.5 3.8843 180 0 0 -12.07656 -7.10495" />
    <path d="M -18.36034 -14.70945 C -18.36 -14.7 -18.36 -14.69 -18.36019 -14.68605 C -18.36 -14.68 -18.36 -14.66 -18.3595 -14.65371 C -18.36 -14.64 -18.36 -14.63 -18.35823 -14.62029 C -18.36 -14.61 -18.36 -14.6 -18.35634 -14.58573 C -18.36 -14.57 -18.35 -14.56 -18.3538 -14.55002 C -18.35 -14.54 -18.35 -14.53 -18.35059 -14.51312 C -18.35 -14.5 -18.35 -14.49 -18.34666 -14.475 C -18.35 -14.46 -18.34 -14.45 -18.34199 -14.43565 C -18.34 -14.42 -18.34 -14.41 -18.33655 -14.39504 C -18.33 -14.38 -18.33 -14.37 -18.33074 -14.35601 C -18.33 -14.34 -18.33 -14.33 -18.3242 -14.31588 C -18.32 -14.3 -18.32 -14.29 -18.31692 -14.27466 C -18.31 -14.26 -18.31 -14.25 -18.30887 -14.23237 C -18.31 -14.22 -18.3 -14.21 -18.30093 -14.19329 C -18.3 -14.18 -18.3 -14.17 -18.29235 -14.15338 C -18.29 -14.14 -18.29 -14.13 -18.28311 -14.11267 C -18.28 -14.1 -18.28 -14.09 -18.27323 -14.07121 C -18.27 -14.06 -18.27 -14.04 -18.26269 -14.02904 C -18.26 -14.01 -18.26 -14 -18.25151 -13.98622 C -18.25 -13.97 -18.24 -13.96 -18.2397 -13.9428 C -18.24 -13.93 -18.23 -13.91 -18.22727 -13.89885 C -18.22 -13.88 -18.22 -13.87 -18.21424 -13.85445 C -18.21 -13.84 -18.21 -13.82 -18.20063 -13.80966 C -18.19 -13.78 -18.18 -13.75 -18.17179 -13.7192 C -18.15 -13.66 -18.13 -13.6 -18.10841 -13.53678 C -18.08 -13.47 -18.06 -13.4 -18.03143 -13.33627 C -17.98 -13.2 -17.92 -13.06 -17.85781 -12.93644 C -17.6 -12.39 -17.34 -11.94 -17.08944 -11.54322 C -16.62 -10.8 -16.19 -10.22 -15.77689 -9.68671 C -14.84 -8.49 -14.02 -7.6 -13.28439 -6.81869" />
    <path d="M -13.01168 18.28868 L -14.87521 17.82651 L -15.09717 18.01133" />
    <path d="M -14.87521 12.77749 L -14.87521 17.82651" />
    <path d="M -13.45936 13.12864 L -14.87521 12.77749 L -16.9388 14.4958" />
    <path d="M -13.45936 -7.00366 L -13.45936 13.12864 A 13 11.2213 360 0 1 -13.46849 12.70823" />
    <path d="M -14.87521 -19.2628 L -14.87521 -17.14298" />
    <path d="M 6.25536 -1.97266 C 6.28 -1.99 6.3 -2.01 6.32063 -2.02359 C 6.34 -2.04 6.36 -2.06 6.38733 -2.07522 C 6.41 -2.09 6.43 -2.11 6.45551 -2.12757 C 6.48 -2.15 6.5 -2.16 6.52518 -2.18066 C 6.55 -2.2 6.57 -2.22 6.59636 -2.23451 C 6.62 -2.25 6.64 -2.27 6.6691 -2.28915 C 6.69 -2.31 6.72 -2.33 6.74341 -2.3446 C 6.77 -2.36 6.79 -2.38 6.81932 -2.40089 C 6.84 -2.42 6.87 -2.44 6.89688 -2.45805 C 6.92 -2.48 6.95 -2.5 6.9761 -2.5161 C 7 -2.54 7.03 -2.56 7.05704 -2.57509 C 7.08 -2.59 7.11 -2.61 7.13973 -2.63504 C 7.17 -2.66 7.2 -2.68 7.22422 -2.69599 C 7.25 -2.72 7.28 -2.74 7.31054 -2.75799 C 7.34 -2.78 7.37 -2.8 7.39875 -2.82107 C 7.43 -2.84 7.46 -2.86 7.48891 -2.88529 C 7.51 -2.9 7.54 -2.92 7.56431 -2.93882 C 7.59 -2.96 7.62 -2.97 7.64109 -2.99318 C 7.67 -3.01 7.69 -3.03 7.71928 -3.04838 C 7.75 -3.07 7.77 -3.09 7.79891 -3.10448 C 7.83 -3.12 7.85 -3.14 7.88004 -3.1615 C 7.91 -3.18 7.93 -3.2 7.9627 -3.21948 C 7.99 -3.24 8.02 -3.26 8.04695 -3.27847 C 8.08 -3.3 8.1 -3.32 8.13282 -3.33851 C 8.16 -3.36 8.19 -3.38 8.22039 -3.39965 C 8.25 -3.42 8.28 -3.44 8.30969 -3.46193 C 8.34 -3.48 8.37 -3.5 8.4008 -3.52542 C 8.43 -3.55 8.46 -3.57 8.49378 -3.59018 C 8.62 -3.68 8.75 -3.77 8.88605 -3.86327 C 9.64 -4.41 11.16 -5.39 12.83166 -6.86203 C 12.84 -6.87 12.86 -6.88 12.86699 -6.89471 C 12.88 -6.91 12.89 -6.92 12.90085 -6.9263 C 12.92 -6.94 12.93 -6.96 12.94817 -6.97089 C 12.96 -6.99 12.98 -7 12.99262 -7.01331 C 13.01 -7.03 13.02 -7.04 13.03438 -7.05369 C 13.05 -7.07 13.06 -7.08 13.07364 -7.09213 C 13.09 -7.1 13.1 -7.12 13.11056 -7.12876 C 13.12 -7.14 13.13 -7.15 13.14528 -7.16368 C 13.16 -7.18 13.17 -7.19 13.17795 -7.197 C 13.19 -7.21 13.2 -7.22 13.20872 -7.2288 C 13.22 -7.24 13.22 -7.24 13.22793 -7.2489 C 13.23 -7.26 13.24 -7.26 13.24639 -7.2684 C 13.25 -7.27 13.26 -7.28 13.26415 -7.28734 C 13.27 -7.29 13.28 -7.3 13.28123 -7.30573 C 13.29 -7.31 13.29 -7.32 13.29765 -7.32359 C 13.3 -7.33 13.31 -7.34 13.31343 -7.34094 C 13.32 -7.35 13.32 -7.35 13.32862 -7.3578 C 13.33 -7.36 13.34 -7.37 13.34322 -7.37418 C 13.35 -7.38 13.36 -7.4 13.37075 -7.40558 C 13.38 -7.42 13.39 -7.43 13.39618 -7.43527 C 13.4 -7.44 13.41 -7.45 13.41967 -7.46334 C 13.43 -7.47 13.43 -7.48 13.44132 -7.48989 C 13.45 -7.5 13.45 -7.5 13.45639 -7.50879 C 13.46 -7.51 13.47 -7.52 13.47054 -7.52692 C 13.48 -7.53 13.48 -7.54 13.48382 -7.54432 C 13.49 -7.55 13.49 -7.56 13.49627 -7.56101 C 13.5 -7.57 13.51 -7.58 13.5188 -7.59238 C 13.53 -7.6 13.53 -7.61 13.53841 -7.62123 C 13.56 -7.66 13.58 -7.69 13.59156 -7.7145 C 13.61 -7.75 13.61 -7.77 13.61252 -7.79009 L 13.61252 -13.05199" />
    <path d="M 5.40778 -2.76868 A 4.5 3.8843 180 0 0 6.25536 -1.97266" />
    <path d="M 5.40778 -2.76868 C 5.43 -2.83 5.45 -2.9 5.46981 -2.96004 C 5.49 -3.02 5.51 -3.09 5.53419 -3.15237 C 5.56 -3.22 5.58 -3.28 5.60095 -3.3457 C 5.62 -3.41 5.65 -3.48 5.67011 -3.54004 C 5.69 -3.6 5.72 -3.67 5.74169 -3.73542 C 5.77 -3.8 5.79 -3.87 5.81575 -3.93187 C 5.84 -4 5.87 -4.06 5.8923 -4.12942 C 5.92 -4.2 5.94 -4.26 5.9714 -4.3281 C 6 -4.39 6.03 -4.46 6.05308 -4.52794 C 6.08 -4.59 6.11 -4.66 6.1374 -4.72899 C 6.17 -4.8 6.19 -4.86 6.22441 -4.93129 C 6.25 -5 6.28 -5.07 6.31416 -5.13488 C 6.34 -5.2 6.38 -5.27 6.40673 -5.33983 C 6.44 -5.41 6.47 -5.48 6.50217 -5.54617 C 6.53 -5.62 6.57 -5.68 6.60056 -5.75398 C 6.63 -5.82 6.67 -5.89 6.70199 -5.96332 C 6.73 -6.02 6.76 -6.08 6.78825 -6.13768 C 6.82 -6.2 6.85 -6.25 6.8767 -6.31319 C 6.91 -6.37 6.94 -6.43 6.9674 -6.48988 C 7 -6.55 7.03 -6.61 7.06042 -6.66781 C 7.09 -6.73 7.12 -6.79 7.15582 -6.84705 C 7.19 -6.91 7.22 -6.97 7.25369 -7.02764 C 7.29 -7.09 7.32 -7.15 7.35411 -7.20967 C 7.39 -7.27 7.42 -7.33 7.45717 -7.3932 C 7.49 -7.45 7.53 -7.52 7.56296 -7.57832 C 7.6 -7.64 7.63 -7.7 7.67161 -7.7651 C 7.71 -7.83 7.75 -7.89 7.78322 -7.95366 C 7.82 -8.02 7.86 -8.08 7.89794 -8.1441 C 8.05 -8.4 8.22 -8.66 8.39115 -8.9273 C 8.45 -9.02 8.51 -9.11 8.5686 -9.19618" />
    <path d="M -12.32354 -7.02028 L -12.31274 -6.99323 L -12.30196 -6.96621 L -12.29118 -6.93923 L -12.28042 -6.91228 L -12.26967 -6.88536 L -12.25893 -6.85847 L -12.2482 -6.83162 L -12.23748 -6.8048 L -12.22678 -6.77802 L -12.21608 -6.75126 L -12.2054 -6.72454 L -12.19473 -6.69786 L -12.18407 -6.6712 L -12.17342 -6.64458 L -12.17342 17.59068" />
    <path d="M 6.44874 -2.02612 L 6.44912 -2.02856 L 6.44949 -2.03099 L 6.44987 -2.03343 L 6.45025 -2.03587 L 6.45062 -2.0383 L 6.451 -2.04074 L 6.45138 -2.04318 L 6.45176 -2.04562 L 6.45213 -2.04806 L 6.45251 -2.05049 L 6.45289 -2.05293 L 6.45326 -2.05537 L 6.45364 -2.05781 L 6.45402 -2.06025" />
    <path d="M -12.17342 -6.64458 A 13 11.2213 180 0 0 6.44874 -2.02612 L 6.44874 22.20914 L 6.80436 23.4431 L 9.56013 24.12656" />
    <path d="M -12.15234 -18.20289 A 1.99 1.71772 180 0 0 -15.95652 -18.20289" />
    <path d="M 7.86976 -13.1542 A 1.99 1.71772 180 0 0 7.34928 -12.42285" />
    <path d="M 11.15346 -12.42285 A 1.99 1.71772 180 0 0 7.86976 -13.1542" />
    <path d="M 5.29968 -32.73473 A 1.99 1.71772 180 0 0 1.4955 -32.73473" />
    <path d="M -17.32222 15.35726 L -17.29451 15.29474 L -17.26684 15.23238 L -17.23923 15.17017 L -17.21167 15.10811 L -17.18416 15.04621 L -17.1567 14.98445 L -17.12929 14.92284 L -17.10193 14.86139 L -17.07462 14.80008 L -17.04735 14.73893 L -17.02014 14.67792 L -16.99298 14.61706 L -16.96587 14.55636 L -16.9388 14.4958" />
    <path d="M -17.06757 12.85917 A 4.5 3.8843 0 0 1 -13.46849 11.71428" />
    <path d="M -17.06757 12.85917 A 16.6 14.32874 180 0 0 -16.9388 14.4958" />
    <path d="M -15.21481 19.28799 C -15.25 19.31 -15.28 19.33 -15.31774 19.35478 C -15.35 19.38 -15.39 19.4 -15.42168 19.41865 C -15.46 19.44 -15.49 19.46 -15.52668 19.47943 C -15.54 19.49 -15.56 19.5 -15.57958 19.50861 C -15.6 19.52 -15.61 19.53 -15.63275 19.53695 C -15.65 19.55 -15.67 19.56 -15.68619 19.56442 C -15.7 19.57 -15.72 19.58 -15.73991 19.59099 C -15.76 19.6 -15.78 19.61 -15.79391 19.61664 C -15.81 19.63 -15.83 19.63 -15.8482 19.64134 C -15.87 19.65 -15.88 19.66 -15.90277 19.66505 C -15.92 19.67 -15.94 19.68 -15.95763 19.68773 C -15.98 19.7 -15.99 19.7 -16.01279 19.70936 C -16.03 19.72 -16.05 19.72 -16.06825 19.72988 C -16.08 19.74 -16.1 19.74 -16.11445 19.74603 C -16.13 19.75 -16.15 19.76 -16.16087 19.76137 C -16.18 19.77 -16.19 19.77 -16.2075 19.77587 C -16.22 19.78 -16.24 19.79 -16.25434 19.7895 C -16.27 19.79 -16.29 19.8 -16.3014 19.80223 C -16.32 19.81 -16.33 19.81 -16.34869 19.81403 C -16.36 19.82 -16.38 19.82 -16.3962 19.82486 C -16.41 19.83 -16.43 19.83 -16.44394 19.83468 C -16.46 19.84 -16.48 19.84 -16.49191 19.84346 C -16.51 19.85 -16.52 19.85 -16.54011 19.85115 C -16.56 19.85 -16.57 19.86 -16.58855 19.85771 C -16.6 19.86 -16.62 19.86 -16.63723 19.86308 C -16.65 19.86 -16.67 19.87 -16.68615 19.86721 C -16.7 19.87 -16.72 19.87 -16.73531 19.87005 C -16.75 19.87 -16.77 19.87 -16.78473 19.87152 C -16.8 19.87 -16.82 19.87 -16.8344 19.87157 C -17.34 19.96 -18.36 19.46 -18.36034 17.60262 L -18.36034 23.66224 A 4.5 3.8843 180 0 0 -11.37121 26.8982" />
    <path d="M -18.36034 17.60262 C -18.36 17.57 -18.36 17.55 -18.3597 17.51881 C -18.36 17.49 -18.36 17.46 -18.35784 17.43605 C -18.36 17.41 -18.36 17.38 -18.35485 17.35434 C -18.35 17.33 -18.35 17.3 -18.35083 17.27368 C -18.35 17.25 -18.35 17.22 -18.34585 17.19406 C -18.34 17.17 -18.34 17.14 -18.33998 17.11546 C -18.34 17.09 -18.34 17.06 -18.33328 17.03787 C -18.33 17.01 -18.33 16.99 -18.32582 16.96123 C -18.32 16.93 -18.32 16.89 -18.31431 16.85655 C -18.31 16.82 -18.31 16.79 -18.30155 16.7536 C -18.3 16.72 -18.29 16.69 -18.28767 16.65232 C -18.28 16.62 -18.28 16.59 -18.27275 16.55264 C -18.27 16.52 -18.26 16.49 -18.25688 16.45448 C -18.25 16.42 -18.25 16.39 -18.24014 16.35777 C -18.23 16.33 -18.23 16.29 -18.2226 16.26246 C -18.22 16.23 -18.21 16.2 -18.20432 16.16847 C -18.2 16.13 -18.19 16.09 -18.18125 16.05631 C -18.17 16.02 -18.17 15.98 -18.15726 15.94593 C -18.15 15.91 -18.14 15.87 -18.13242 15.83723 C -18.12 15.8 -18.12 15.77 -18.1068 15.73014 C -18.1 15.69 -18.09 15.66 -18.08046 15.62457 C -18.07 15.59 -18.06 15.55 -18.05345 15.52047 C -18.04 15.49 -18.04 15.45 -18.02582 15.41776 C -18.02 15.38 -18.01 15.35 -17.99762 15.31638 C -17.99 15.29 -17.98 15.26 -17.97464 15.23611 C -17.97 15.21 -17.96 15.18 -17.95133 15.15664 C -17.94 15.1 -17.92 15.05 -17.9038 14.99997 C -17.87 14.9 -17.84 14.79 -17.80551 14.69515 C -17.74 14.5 -17.67 14.3 -17.59849 14.11547 C -17.43 13.67 -17.25 13.25 -17.06757 12.85917" />
    <path d="M -11.37121 18.81978 A 4.5 3.8843 0 0 1 -15.21481 19.28799" />
    <path d="M -11.37121 18.81978 L -11.37121 26.8982" />
    <path d="M 5.01303 30.96164 A 4.5 3.8843 180 0 0 13.61252 29.35971" />
    <path d="M 5.01303 30.96164 A 13 11.2213 360 0 1 -11.37121 26.8982" />
    <path d="M 10.28254 19.01684 A 13 11.2213 180 0 0 11.11459 17.8026 A 4.5 3.8843 360 0 1 13.50614 20.44172 C 13.51 20.5 13.52 20.57 13.52829 20.62928 C 13.54 20.69 13.54 20.76 13.54821 20.81878 C 13.55 20.88 13.56 20.95 13.56577 21.01028 C 13.57 21.07 13.58 21.14 13.58082 21.20387 C 13.58 21.24 13.59 21.27 13.58735 21.30148 C 13.59 21.33 13.59 21.37 13.59319 21.39963 C 13.6 21.43 13.6 21.47 13.59832 21.49836 C 13.6 21.53 13.6 21.56 13.6027 21.59766 C 13.6 21.63 13.61 21.66 13.60632 21.69755 C 13.61 21.73 13.61 21.76 13.60914 21.79805 C 13.61 21.83 13.61 21.87 13.61113 21.89916 C 13.61 21.93 13.61 21.97 13.61226 22.00091 C 13.61 22.03 13.61 22.05 13.61252 22.0782 L 13.61252 29.35971" />
    <path d="M 10.28254 -4.70462 L 10.28254 19.01684" />
    <path d="M 10.71862 24.174 L 8.43059 23.60655 L 8.20863 23.79137" />
    <path d="M 8.43059 23.60655 L 8.43059 -3.26022" />
    <path d="M 8.43059 -11.36294 L 8.43059 -13.48275" />
    <path d="M 11.69838 19.36798 L 10.28254 19.01684" />
    <path d="M 11.69838 23.34591 L 11.69838 19.36798" />
    <path d="M 7.57843 -2.61979 A 15 12.94766 0 0 1 6.25536 -1.97266" />
    <path d="M 7.57843 -2.61979 L 7.74637 -2.74381 L 7.91577 -2.87004 L 8.08668 -2.99849 L 8.2591 -3.12918 L 8.43307 -3.26212 L 8.6086 -3.39733 L 8.78573 -3.53484 L 8.96446 -3.67465 L 9.14484 -3.8168 L 9.32688 -3.96129 L 9.51061 -4.10815 L 9.69604 -4.2574 L 9.88322 -4.40905 L 10.07215 -4.56313 L 10.20389 -4.65099 L 10.3355 -4.74123 L 10.46699 -4.83385 L 10.5984 -4.92888 L 10.72972 -5.02631 L 10.86097 -5.12617 L 10.99218 -5.22846 L 11.12335 -5.33319 L 11.2545 -5.44039 L 11.38564 -5.55005 L 11.5168 -5.66219 L 11.64798 -5.77683 L 11.7792 -5.89398 L 11.91048 -6.01365 L 12.83166 -6.86203" />
    <path d="M -13.23365 18.4735 L -12.17342 17.59068" />
    <path d="M 5.01303 22.88322 A 13 11.2213 180 0 0 6.44874 22.20914" />
    <path d="M 5.01303 22.88322 L 5.01303 30.96164" />
    <path d="M -11.37121 18.81978 A 13 11.2213 360 0 1 -12.17342 17.59068" />
    <path d="M -15.98942 17.79004 L -13.23365 18.4735" />
    <path d="M -15.98942 17.79004 L -16.02556 17.81911 L -16.06177 17.84826 L -16.09804 17.8775 L -16.13438 17.90684 L -16.17078 17.93626 L -16.20726 17.96578 L -16.24379 17.99539 L -16.2804 18.0251 L -16.31707 18.05489 L -16.35381 18.08478 L -16.39061 18.11476 L -16.42749 18.14484 L -16.46443 18.175 L -16.50144 18.20526 L -16.56022 17.97279 L -16.61893 17.74496 L -16.67758 17.52173 L -16.73619 17.30305 L -16.79475 17.08888 L -16.8533 16.87917 L -16.91183 16.67389 L -16.97036 16.47298 L -17.0289 16.27641 L -17.08747 16.08414 L -17.14607 15.89613 L -17.20472 15.71233 L -17.26344 15.53272 L -17.32222 15.35726" />
    <path d="M -15.98942 17.79004 A 16.6 14.32874 180 0 0 -15.21481 19.28799" />
    <path d="M 7.98249 25.04112 A 4.5 3.8843 360 0 1 5.01303 22.88322" />
    <path d="M 13.61252 22.0782 C 13.61 22.13 13.61 22.19 13.61136 22.23939 C 13.61 22.29 13.61 22.35 13.6078 22.40226 C 13.61 22.43 13.61 22.46 13.60505 22.48436 C 13.6 22.51 13.6 22.54 13.60164 22.5669 C 13.6 22.59 13.6 22.62 13.59753 22.64991 C 13.6 22.68 13.59 22.71 13.5927 22.73339 C 13.59 22.76 13.59 22.79 13.58712 22.81735 C 13.59 22.85 13.58 22.87 13.58076 22.90181 C 13.58 22.93 13.58 22.96 13.57359 22.98677 C 13.57 23.02 13.57 23.04 13.56557 23.07225 C 13.56 23.1 13.56 23.13 13.55666 23.15827 C 13.55 23.19 13.55 23.22 13.54683 23.24483 C 13.54 23.27 13.54 23.3 13.53604 23.33195 C 13.53 23.36 13.53 23.39 13.52422 23.41966 C 13.52 23.45 13.52 23.48 13.51113 23.5094 C 13.51 23.54 13.5 23.57 13.49689 23.59973 C 13.49 23.63 13.49 23.66 13.48143 23.69069 C 13.48 23.72 13.47 23.75 13.4647 23.7823 C 13.46 23.81 13.45 23.84 13.44661 23.8746 C 13.44 23.91 13.43 23.94 13.42708 23.96761 C 13.42 24 13.41 24.03 13.40602 24.06137 C 13.4 24.09 13.39 24.12 13.38334 24.15589 C 13.38 24.19 13.37 24.22 13.35893 24.25117 C 13.35 24.28 13.34 24.32 13.33267 24.34725 C 13.32 24.38 13.31 24.41 13.30444 24.44413 C 13.29 24.48 13.28 24.51 13.2741 24.54181 C 13.25 24.61 13.23 24.67 13.20641 24.73962 C 13.18 24.81 13.16 24.87 13.12809 24.94077 C 12.9 25.64 12.11 26.54 11.40922 26.65259 C 9.66 26.91 8.81 25.87 7.98249 25.04112 A 16.6 14.32874 180 0 0 9.56013 24.12656" />
    <path d="M 2.57681 -33.79464 L 2.57681 -31.67482" />
    <path d="M 12.39056 21.76974 L 11.69838 19.36798" />
    <path d="M 12.39056 21.76974 A 16.6 14.32874 180 0 0 13.50614 20.44172" />
    <path d="M 12.39056 21.76974 L 12.39964 21.83926 L 12.40873 21.90895 L 12.41784 21.9788 L 12.42697 22.04882 L 12.43611 22.119 L 12.44527 22.18935 L 12.45445 22.25987 L 12.46364 22.33056 L 12.47286 22.40141 L 12.48208 22.47243 L 12.49133 22.54361 L 12.50059 22.61497 L 12.50987 22.68649 L 12.51916 22.75818 L 12.34391 22.87561 L 12.16888 22.99725 L 11.99402 23.12313 L 11.8193 23.25327 L 11.6447 23.38772 L 11.47016 23.52648 L 11.29566 23.66959 L 11.12116 23.81708 L 10.94662 23.96898 L 10.77201 24.12532 L 10.5973 24.28614 L 10.42244 24.45146 L 10.2474 24.62131 L 10.07215 24.79575 L 10.03514 24.74713 L 9.9982 24.69864 L 9.96133 24.65028 L 9.92452 24.60204 L 9.88778 24.55393 L 9.85111 24.50594 L 9.81451 24.45808 L 9.77797 24.41035 L 9.7415 24.36274 L 9.70509 24.31525 L 9.66876 24.26789 L 9.63248 24.22066 L 9.59628 24.17355 L 9.56013 24.12656" />
    <path d="M -18.36034 -14.70945 L -18.36034 -18.74947" />
    <path d="M -13.46849 -7.01336 L -13.46849 12.70823" />
    <path d="M 13.61252 -12.11356 L 15.50691 -16.60773" />
    <path d="M 12.53151 -6.58561 L 12.53151 18.75578" />
</svg>