<svg viewBox="0 0 800 800" xmlns="http://www.w3.org/2000/svg"><path d="M390.59007007643993,-12.32291932512453 L412.5541284271918,-10.446408101530551 M412.5541284271918,-10.446408101530551 L433.7217283096431,-6.6255947735189125 M433.7217283096431,-6.6255947735189125 L453.56232825454134,-0.9556387858837638 M453.56232825454134,-0.9556387858837638 L471.5780333330247,6.422160092027241 M471.5780333330247,6.422160092027241 L487.31599544777293,15.323745022856372 M487.31599544777293,15.323745022856372 L500.37968192929304,25.526764999464206 M500.37968192929304,25.526764999464206 L510.4388739986633,36.775989203213385 M510.4388739986633,36.775989203213385 L517.2381065245091,48.789534574136155 M517.2381065245091,48.789534574136155 L520.6032666259485,61.26584442946978 M520.6032666259485,61.26584442946978 L520.3529592876476,203.13762519097187 M520.3529592876476,203.13762519097187 L520.6193631410871,205.88651605216333 M520.6193631410871,205.88651605216333 L520.7188218487204,208.63920731567865 M520.7188218487204,208.63920731567865 L520.6511935567705,211.3924055707117 M520.6511935567705,211.3924055707117 L519.9348469017629,616.5029378332767 M519.6382912806991,608.204546070348 L519.903280732,610.9679617918897 M519.903280732,610.9679617918897 L520.0021795675868,613.7351959845889 M520.0021795675868,613.7351959845889 L519.9348469017629,616.5029378332767 M519.6382912806991,608.204546070348 L519.3914232997521,748.1269323164374 M519.3914232997521,748.1269323164374 L516.0558027516792,735.5385790820701 M516.0558027516792,735.5385790820701 L509.31581634803763,723.4170795313619 M509.31581634803763,723.4170795313619 L499.34403612710605,712.0667100817684 M499.34403612710605,712.0667100817684 L486.39369009447614,701.7719020172595 M486.39369009447614,701.7719020172595 L470.7921230893861,692.7901983997131 M470.7921230893861,692.7901983997131 L452.93243134629313,685.3459684560314 M452.93243134629313,685.3459684560314 L433.2635506437529,679.624942375285 M433.2635506437529,679.624942375285 L412.27908412115045,675.7697062273558 M412.27908412115045,675.7697062273558 L390.5050071269757,673.8762865455544 M390.5223357654433,534.0868949224871 L390.5050071269757,673.8762865455544 M376.1260352332026,533.9338645505434 L380.9269060109835,533.8896487342564 M380.9269060109835,533.8896487342564 L385.7275762080877,533.9406765431185 M385.7275762080877,533.9406765431185 L390.5223357654433,534.0868949224871 M376.10226025136603,129.258067939434 L376.1260352332026,533.9338645505434 M376.10226025136603,129.258067939434 L380.9277883327237,129.21408540220114 M380.9277883327237,129.21408540220114 L385.7531148097046,129.26484399253536 M385.7531148097046,129.26484399253536 L390.57250047740956,129.4102909395172 M390.59007007643993,-12.32291932512453 L390.57250047740956,129.4102909395172 M520.6032666259485,61.26584442946978 L532.1729716199866,61.52222759139801 M532.1729716199866,61.52222759139801 L543.3130583126815,63.325610093803334 M543.3130583126815,63.325610093803334 L553.3906415032632,66.57376293630585 M553.3906415032632,66.57376293630585 L561.8328650547965,71.08248176238436 M561.8328650547965,71.08248176238436 L568.1593107100227,76.59593922925501 M568.1593107100227,76.59593922925501 L572.0093539546226,82.80103616548325 M572.0093539546226,82.80103616548325 L573.1627892752376,89.34509743212982 M573.1627892752376,89.34509743212982 L571.5526207063206,95.85582060785492 M571.5526207063206,95.85582060785492 L567.269192068663,101.96242403894166 M567.269192068663,101.96242403894166 L560.5552595122284,107.31680478031092 M560.5552595122284,107.31680478031092 L551.7925311900111,111.6134816847736 M551.7925311900111,111.6134816847736 L541.4799403626324,114.60714525556125 M541.4799403626324,114.60714525556125 L530.2052149725334,116.12675850924029 M530.2052149725334,116.12675850924029 L518.6113028443889,116.08549270922549 M518.6113028443889,116.08549270922549 L507.35944495028923,114.48569782897977 M507.35944495028923,114.48569782897977 L497.0912741209015,111.41880464905887 M497.0912741209015,111.41880464905887 L483.2211457995789,121.31349058378044 M483.2211457995789,121.31349058378044 L466.7584205373128,129.8385092574697 M466.7584205373128,129.8385092574697 L448.1182087431938,136.77711467792983 M448.1182087431938,136.77711467792983 L427.7715347223245,141.95268826512643 M427.7715347223245,141.95268826512643 L406.23337440406823,145.23337549797466 M406.23337440406823,145.23337549797466 L384.04937026539096,146.53552599803658 M384.04937026539096,146.53552599803658 L361.7818524663871,145.8259376011834 M361.7818524663871,145.8259376011834 L339.99530343111223,143.12270734126173 M339.99530343111223,143.12270734126173 L319.24178831663914,138.49476060200868 M319.24178831663914,138.49476060200868 L313.04383553424447,144.07201679851863 M313.04383553424447,144.07201679851863 L304.69730997860603,148.65863425868957 M304.69730997860603,148.65863425868957 L294.6773068675269,151.99277219180223 M294.6773068675269,151.99277219180223 L283.5547864486326,153.8839938421371 M283.5547864486326,153.8839938421371 L271.9639429770999,154.2242266674264 M271.9639429770999,154.2242266674264 L260.5658673474037,152.99401626720206 M260.5658673474037,152.99401626720206 L250.01054466341571,150.26367802525291 M250.01054466341571,150.26367802525291 L240.89965060181618,146.18919755587436 M240.89965060181618,146.18919755587436 L233.75205349284738,141.00323899677295 M233.75205349284738,141.00323899677295 L228.97423491462672,135.00172119893296 M228.97423491462672,135.00172119893296 L226.83721072476237,128.5268184315339 M226.83721072476237,128.5268184315339 L227.4613444403003,121.94732474981072 M227.4613444403003,121.94732474981072 L230.80972713027774,115.63764474967536 M230.80972713027774,115.63764474967536 L236.690631715224,109.95646444705125 M236.690631715224,109.95646444705125 L244.76869318073983,105.22644319814941 M244.76869318073983,105.22644319814941 L254.5840889781768,101.71601227339556 M254.5840889781768,101.71601227339556 L246.4903531701828,89.94486461967466 M246.4903531701828,89.94486461967466 L241.7856027860468,77.59913375603873 M241.7856027860468,77.59913375603873 L240.58525534606486,64.99068924855118 M240.58525534606486,64.99068924855118 L242.9161465773522,52.43742918218135 M242.9161465773522,52.43742918218135 L248.71620841450448,40.25524882406154 M248.71620841450448,40.25524882406154 L257.836322472252,28.750106951782243 M257.836322472252,28.750106951782243 L270.04443850292535,18.210454228799733 M270.04443850292535,18.210454228799733 L285.0315962362164,8.900065818169196 M285.0315962362164,8.900065818169196 L302.41985534904893,1.0515974171290168 M302.41985534904893,1.0515974171290168 L297.0479764088915,-4.739996901037159 M297.0479764088915,-4.739996901037159 L294.254272948943,-11.086914046120171 M294.254272948943,-11.086914046120171 L294.19655787352417,-17.62754508419215 M294.19655787352417,-17.62754508419215 L296.87673340995576,-23.989623334474857 M296.87673340995576,-23.989623334474857 L302.1410565265827,-29.811389526850803 M302.1410565265827,-29.811389526850803 L309.6890744598263,-34.76213502601382 M309.6890744598263,-34.76213502601382 L319.09100700909033,-38.56085165688131 M319.09100700909033,-38.56085165688131 L329.8121912260559,-40.992047510481825 M329.8121912260559,-40.992047510481825 L341.24340764167783,-41.917906052508044 M341.24340764167783,-41.917906052508044 L352.7353497739514,-41.28593615277589 M352.7353497739514,-41.28593615277589 L363.6352965783954,-39.13195748757312 M363.6352965783954,-39.13195748757312 L373.32394893942626,-35.578086867077445 M373.32394893942626,-35.578086867077445 L381.2504120090619,-30.825885940397143 M381.2504120090619,-30.825885940397143 L386.9634867828329,-25.145061138760127 M386.9634867828329,-25.145061138760127 L390.13730615307173,-18.858268345992997 M390.13730615307173,-18.858268345992997 L390.59007007643993,-12.32291932512453 M347.2899473203948,-3.991197603326725 L352.08209459283756,-5.083027655622743 M352.08209459283756,-5.083027655622743 L356.27369749120606,-6.792228749837193 M356.27369749120606,-6.792228749837193 L359.62104896849456,-9.019328837558817 M359.62104896849456,-9.019328837558817 L361.9296617503397,-11.634740632933813 M361.9296617503397,-11.634740632933813 L363.06553737158697,-14.48633319085701 M363.06553737158697,-14.48633319085701 L362.96290823466575,-17.408329628740034 M362.96290823466575,-17.408329628740034 L361.6280210852817,-20.230910088818348 M361.6280210852817,-20.230910088818348 L359.13868139134274,-22.790116774108185 M359.13868139134274,-22.790116774108185 L355.63972976394354,-24.937350786117975 M355.63972976394354,-24.937350786117975 L351.334506609234,-26.547979455284633 M351.334506609234,-26.547979455284633 L346.4731312657632,-27.528539645743876 M346.4731312657632,-27.528539645743876 L341.3379016584442,-27.82214534366193 M341.3379016584442,-27.82214534366193 L336.22698946930933,-27.411760421668134 M336.22698946930933,-27.411760421668134 L331.43716329045833,-26.321199683713473 M331.43716329045833,-26.321199683713473 L327.2465911783309,-24.613726906323734 M327.2465911783309,-24.613726906323734 L323.8987239340952,-22.38842958732414 M323.8987239340952,-22.38842958732414 L321.5881669916462,-19.774482018061747 M321.5881669916462,-19.774482018061747 L320.4493806685257,-16.923666269875127 M320.4493806685257,-16.923666269875127 L320.5487820751496,-14.001602452003738 M320.5487820751496,-14.001602452003738 L321.88087393833746,-11.178108782065351 M321.88087393833746,-11.178108782065351 L324.3684839046183,-8.61735637035116 M324.3684839046183,-8.61735637035116 L327.8671849336896,-6.4682998059386705 M327.8671849336896,-6.4682998059386705 L332.17366387360005,-4.855994976831539 M332.17366387360005,-4.855994976831539 L337.03754105616514,-3.8742817309523048 M337.03754105616514,-3.8742817309523048 L342.17593173490314,-3.580310701633209 M342.17593173490314,-3.580310701633209 L347.2899473203948,-3.991197603326725 M289.03497971518834,118.88417336752161 L284.96084771510635,117.06920048060272 M284.96084771510635,117.06920048060272 L280.2393766454997,115.86147539823088 M280.2393766454997,115.86147539823088 L275.14479288721896,115.33105969953601 M275.14479288721896,115.33105969953601 L269.97291348204976,115.50872434953652 M269.97291348204976,115.50872434953652 L265.0240219333816,116.38416943404718 M265.0240219333816,116.38416943404718 L260.58551520214263,117.9065999772468 M260.58551520214263,117.9065999772468 L256.9152033122981,119.98768254836733 M256.9152033122981,119.98768254836733 L254.2263992382516,122.50662527455495 M254.2263992382516,122.50662527455495 L252.6754862659514,125.31718200406442 M252.6754862659514,125.31718200406442 L252.35283831493234,128.25609507648971 M252.35283831493234,128.25609507648971 L253.2774711793619,131.15259124200617 M253.2774711793619,131.15259124200617 L255.39590674388796,133.83828197249653 M255.39590674388796,133.83828197249653 L258.5852297511271,136.15695771557773 M258.5852297511271,136.15695771557773 L262.66013472739564,137.97372380923014 M262.66013472739564,137.97372380923014 L267.3837575843147,139.18283129074877 M267.3837575843147,139.18283129074877 L272.48137897979024,139.71390189911216 M272.48137897979024,139.71390189911216 L277.65648598900924,139.53601463653638 M277.65648598900924,139.53601463653638 L282.6080557088509,138.6595204077039 M282.6080557088509,138.6595204077039 L287.048077635011,137.13545454279722 M287.048077635011,137.13545454279722 L290.71839463355707,135.05252509997365 M290.71839463355707,135.05252509997365 L293.40569255983286,132.5319470520447 M293.40569255983286,132.5319470520447 L294.9539331654007,129.72034118000545 M294.9539331654007,129.72034118000545 L295.27335474427514,126.78120549242362 M295.27335474427514,126.78120549242362 L294.3456806196361,123.88536423586709 M294.3456806196361,123.88536423586709 L292.22508561969784,121.20105590921685 M292.22508561969784,121.20105590921685 L289.03497971518834,118.88417336752161 M454.27324999674863,25.151876321147427 L467.5882319434478,34.392634898615086 M467.5882319434478,34.392634898615086 L477.3571069859144,44.96642203479831 M477.3571069859144,44.96642203479831 L483.1777414058385,56.442150847100436 M483.1777414058385,56.442150847100436 L484.8085467884121,68.35117281134899 M484.8085467884121,68.35117281134899 L482.17892010371355,80.20627315303551 M482.17892010371355,80.20627315303551 L475.392761465729,91.5215543459314 M475.392761465729,91.5215543459314 L464.7248150802429,101.83242511933298 M464.7248150802429,101.83242511933298 L450.6099319683157,110.71483038096329 M450.6099319683157,110.71483038096329 L433.6255702542197,117.80292662571117 M433.6255702542197,117.80292662571117 L414.4682410973472,122.80442265507992 M414.4682410973472,122.80442265507992 L393.9247718682407,125.5128769600982 M393.9247718682407,125.5128769600982 L372.8397131140628,125.81643228573034 M372.8397131140628,125.81643228573034 L352.08017356862524,123.70254675061602 M352.08017356862524,123.70254675061602 L332.49969866973976,119.2585339996275 M332.49969866973976,119.2585339996275 L314.90275247416656,112.66785104254893 M314.90275247416656,112.66785104254893 L300.01126690972274,104.20235727448733 M300.01126690972274,104.20235727448733 L288.43489481271183,94.2108390372332 M288.43489481271183,94.2108390372332 L280.6460418804794,83.10436498486177 M280.6460418804794,83.10436498486177 L276.96075189586617,71.33916044145104 M276.96075189586617,71.33916044145104 L277.52625921441825,59.39765160711153 M277.52625921441825,59.39765160711153 L282.31553142162875,47.7686043031585 M282.31553142162875,47.7686043031585 L291.129018982949,36.927140307194975 M291.129018982949,36.927140307194975 L303.60337484540287,27.315433065907087 M303.60337484540287,27.315433065907087 L319.2267528314431,19.32489396772246 M319.2267528314431,19.32489396772246 L337.35992632719854,13.280468214424275 M337.35992632719854,13.280468214424275 L357.2624036156378,9.427696134507983 M357.2624036156378,9.427696134507983 L378.12244240210407,7.9229668680942495 M378.12244240210407,7.9229668680942495 L399.0897737635235,8.827337816607098 M399.0897737635235,8.827337816607098 L419.3098227837554,12.104114439811894 M419.3098227837554,12.104114439811894 L437.9580650063215,17.620302515810863 M437.9580650063215,17.620302515810863 L454.27324999674863,25.151876321147427 M505.9401672548671,85.8830118293148 L505.22218379798926,88.79215011833736 M505.22218379798926,88.79215011833736 L505.7520762020289,91.71598964639139 M505.7520762020289,91.71598964639139 L507.4993208463836,94.48457972515729 M507.4993208463836,94.48457972515729 L510.36259199987285,96.9369203251211 M510.36259199987285,96.9369203251211 L514.175604260766,98.93034844384152 M514.175604260766,98.93034844384152 L518.7167278213466,100.34885411496867 M518.7167278213466,100.34885411496867 L523.7218985482107,101.10986357733782 M523.7218985482107,101.10986357733782 L528.8999901187586,101.16907374713043 M528.8999901187586,101.16907374713043 L533.9498070284707,100.52303945710958 M533.9498070284707,100.52303945710958 L538.5776075085395,99.20936540764745 M538.5776075085395,99.20936540764745 L542.5142855170528,97.3045313208998 M542.5142855170528,97.3045313208998 L545.5310079831604,94.91939218229737 M545.5310079831604,94.91939218229737 L547.4525364886932,92.19271153732285 M547.4525364886932,92.19271153732285 L548.1674127956873,89.28306301465187 M548.1674127956873,89.28306301465187 L547.6343431244568,86.3595918065921 M547.6343431244568,86.3595918065921 L545.8845862598965,83.59216835257763 M545.8845862598965,83.59216835257763 L543.020042586015,81.14151763637551 M543.020042586015,81.14151763637551 L539.207301976228,79.14993110114239 M539.207301976228,79.14993110114239 L534.6679218532316,77.73297966672163 M534.6679218532316,77.73297966672163 L529.6655641858259,76.97289088335839 M529.6655641858259,76.97289088335839 L524.4907035635957,76.91375279310961 M524.4907035635957,76.91375279310961 L519.4438255891178,77.55899977253591 M519.4438255891178,77.55899977253591 L514.8179611954608,78.87119762805412 M514.8179611954608,78.87119762805412 L510.8817967299402,80.77421419923792 M510.8817967299402,80.77421419923792 L507.86404761351605,83.1576108696047 M507.86404761351605,83.1576108696047 L505.9401672548671,85.8830118293148 M302.41985534904893,1.0515974171290168 L302.55984541697785,142.81002983511837 M294.1167946541464,125.63098100514401 L294.6670609839604,131.66560172004426 M294.6670609839604,131.66560172004426 L297.5272403153344,137.4859446024778 M297.5272403153344,137.4859446024778 L302.55984541697785,142.81002983511837 M382.8002935064145,112.13555244024315 L374.08922490533456,85.72964224366041 M374.08922490533456,85.72964224366041 L365.3207847290097,68.75196572621246 M365.3207847290097,68.75196572621246 L357.041722458498,57.801677509152626 M357.041722458498,57.801677509152626 L351.05938378182555,52.20300967574502 M351.05938378182555,52.20300967574502 L345.58992264687254,48.55739428210438 M345.58992264687254,48.55739428210438 L340.691480741256,46.41438935274448 M340.691480741256,46.41438935274448 L336.1704676670593,45.360438775266516 M336.1704676670593,45.360438775266516 L331.0317991654271,45.2589987013904 M331.0317991654271,45.2589987013904 L325.7530660532827,46.44099858473527 M325.7530660532827,46.44099858473527 L321.1105316729122,48.671438358073715 M321.1105316729122,48.671438358073715 L317.2547617426585,51.49432977113753 M317.2547617426585,51.49432977113753 L313.1058441461932,55.700980746392304 M313.1058441461932,55.700980746392304 L308.3513508984372,62.41606869240542 M308.3513508984372,62.41606869240542 L303.28928088195556,72.79901525154946 M303.28928088195556,72.79901525154946 L298.46007441187555,88.5015287956391 M298.46007441187555,88.5015287956391 L295.3328172322143,107.18243330958887 M295.3328172322143,107.18243330958887 L294.1167946541464,125.63098100514401 M390.57250047740956,129.4102909395172 L390.25514127674916,123.37054671988199 M390.25514127674916,123.37054671988199 L387.6216063728099,117.51798685030002 M387.6216063728099,117.51798685030002 L382.8002935064145,112.13555244024315 M364.1816736214427,23.066800733153684 L353.14453183777607,20.80993326732471 M353.14453183777607,20.80993326732471 L341.47271289726575,20.12591511266379 M341.47271289726575,20.12591511266379 L329.85201706160564,21.054856963703287 M329.85201706160564,21.054856963703287 L318.96523280739916,23.54228148195955 M318.96523280739916,23.54228148195955 L309.4523144322068,27.442316268331695 M309.4523144322068,27.442316268331695 L301.87286632008,32.52610454328914 M301.87286632008,32.52610454328914 L301.8464204228342,5.942391816371526 M364.1761186077432,-3.5135597939915897 L353.1352779848628,-5.769627238552459 M353.1352779848628,-5.769627238552459 L341.4595473976619,-6.453402902888513 M341.4595473976619,-6.453402902888513 L329.8349564737719,-5.524790367755827 M329.8349564737719,-5.524790367755827 L318.94452208852056,-3.038247583763109 M318.94452208852056,-3.038247583763109 L309.42841275715665,0.8604049472760948 M309.42841275715665,0.8604049472760948 L301.8464204228342,5.942391816371526 M364.1816736214427,23.066800733153684 L364.1761186077432,-3.5135597939915897 M368.1515789441588,112.39474513846119 L376.10226025136603,129.258067939434 M368.1515789441588,112.39474513846119 L373.02946164533523,112.2284907428056 M373.02946164533523,112.2284907428056 L377.91370589777085,112.14206748458889 M377.91370589777085,112.14206748458889 L382.8002935064145,112.13555244024315 M377.1317922778341,623.5095498505975 L369.67427687623564,607.4909201209783 M369.6705884145081,581.2880592580968 L369.67427687623564,607.4909201209783 M369.6705884145081,581.2880592580968 L367.73750896657805,577.1386229508357 M367.73750896657805,577.1386229508357 L367.7273914967736,515.9339963322914 M376.1260352332026,533.9338645505434 L367.7273914967736,515.9339963322914 M368.1515789441588,112.39474513846119 L367.6598772771849,107.51344442984731 M367.64734649744156,31.709739526164526 L367.6598772771849,107.51344442984731 M367.64734649744156,31.709739526164526 L369.59380662792216,35.82964885669918 M369.5900643906045,9.244765782070886 L369.59380662792216,35.82964885669918 M369.5900643906045,9.244765782070886 L377.10424428864457,25.138480403526785 M377.10424428864457,25.138480403526785 L377.1317922778341,623.5095498505975 M375.6980248861032,511.8501465459261 L382.588344044512,516.545759530777 M382.588344044512,516.545759530777 L387.50009064991247,522.0008738812162 M387.50009064991247,522.0008738812162 L390.1894571453163,527.9459246752551 M390.1894571453163,527.9459246752551 L390.5223357654433,534.0868949224871 M375.6980248861032,511.8501465459261 L367.28275201323845,512.1028164312576 M367.28275201323845,512.1028164312576 L358.8976664462077,512.5845815838263 M358.8976664462077,512.5845815838263 L350.5615419363335,513.2943675513313 M367.7273914967736,515.9339963322914 L350.5615419363335,513.2943675513313 M296.4718780336922,524.0307613427824 L301.0756647488792,533.0271657838973 M301.0756647488792,533.0271657838973 L306.68692097038223,538.2814386171842 M306.68692097038223,538.2814386171842 L311.4049450876022,540.7579322698555 M311.4049450876022,540.7579322698555 L315.24262810291077,541.975808430233 M315.24262810291077,541.975808430233 L320.16034656517655,542.7703662657221 M320.16034656517655,542.7703662657221 L324.3612521195574,542.899804641939 M324.3612521195574,542.899804641939 L329.74061187966333,542.4438374240801 M329.74061187966333,542.4438374240801 L334.9555347675249,541.4086009645812 M334.9555347675249,541.4086009645812 L339.3183513009403,540.1235322008813 M339.3183513009403,540.1235322008813 L343.2012108639354,538.6659104410339 M343.2012108639354,538.6659104410339 L347.7015602295359,536.6022298007877 M347.7015602295359,536.6022298007877 L353.35543139273364,533.4116870050044 M353.35543139273364,533.4116870050044 L360.1728576341886,528.5767259215683 M360.1728576341886,528.5767259215683 L369.100329044057,520.1944380173026 M369.100329044057,520.1944380173026 L375.6980248861032,511.8501465459261 M302.95954404588923,547.5576802389347 L297.90729815200314,542.1404900334985 M297.90729815200314,542.1404900334985 L295.0683074113147,536.2161401796469 M295.0683074113147,536.2161401796469 L294.5821757216982,530.078251381239 M294.5821757216982,530.078251381239 L296.4718780336922,524.0307613427824 M302.95954404588923,547.5576802389347 L303.097613542581,687.3712806273572 M390.5050071269757,673.8762865455544 L390.0561728264793,667.2820377717185 M390.0561728264793,667.2820377717185 L386.90980802583334,660.9385670730403 M386.90980802583334,660.9385670730403 L381.24613019914676,655.2065120020548 M381.24613019914676,655.2065120020548 L373.38818293855303,650.4114439999707 M373.38818293855303,650.4114439999707 L363.7832644478254,646.8255091162202 M363.7832644478254,646.8255091162202 L352.977513266496,644.6520937169398 M352.977513266496,644.6520937169398 L341.5848857836103,644.0144207476783 M341.5848857836103,644.0144207476783 L330.2524736386489,644.9486344292175 M330.2524736386489,644.9486344292175 L319.62398235263356,647.4017680493298 M319.62398235263356,647.4017680493298 L310.30337269821416,651.2347568360019 M310.30337269821416,651.2347568360019 L302.8206868251473,656.2301583223802 M302.8206868251473,656.2301583223802 L297.6019832668561,662.1044229461418 M297.6019832668561,662.1044229461418 L294.94510430257196,668.5238543909248 M294.94510430257196,668.5238543909248 L295.0024462020637,675.1234291308051 M295.0024462020637,675.1234291308051 L297.7721042924249,681.5275257103496 M297.7721042924249,681.5275257103496 L303.097613542581,687.3712806273572 M364.2956495290204,568.4337212663695 L364.3011247438421,594.6322496224477 M302.4415393124404,604.1625789641248 L309.9662788655133,599.0406230668619 M309.9662788655133,599.0406230668619 L319.41058155349475,595.1113013405109 M319.41058155349475,595.1113013405109 L330.2188761330465,592.6051947522114 M330.2188761330465,592.6051947522114 L341.7558147390377,591.6692753855219 M341.7558147390377,591.6692753855219 L353.34352029484234,592.3584314039628 M353.34352029484234,592.3584314039628 L364.3011247438421,594.6322496224477 M302.4154734079886,577.9608392585994 L302.4415393124404,604.1625789641248 M302.4154734079886,577.9608392585994 L309.94272058133544,572.8406090688288 M309.94272058133544,572.8406090688288 L319.39016835184634,568.9126115258156 M319.39016835184634,568.9126115258156 L330.2020606113006,566.4073496337736 M330.2020606113006,566.4073496337736 L341.7428383501844,565.4717457509614 M341.7428383501844,565.4717457509614 L353.33439936766996,566.1606694641699 M353.33439936766996,566.1606694641699 L364.2956495290204,568.4337212663695 M496.0818734649098,798.7295791211307 L506.260865206801,801.8239340154416 M506.260865206801,801.8239340154416 L517.4150386231087,803.4380521604853 M517.4150386231087,803.4380521604853 L528.9083417640487,803.4796874056367 M528.9083417640487,803.4796874056367 L540.0852835813728,801.9464688243747 M540.0852835813728,801.9464688243747 L550.3085029796164,798.9259994694821 M550.3085029796164,798.9259994694821 L558.9953723117445,794.5908422768309 M558.9953723117445,794.5908422768309 L565.6512792709437,789.1884969298657 M565.6512792709437,789.1884969298657 L569.8978107234409,783.027174618481 M569.8978107234409,783.027174618481 L571.4942929353783,776.4580927939294 M571.4942929353783,776.4580927939294 L570.3511384074825,769.8553546998278 M570.3511384074825,769.8553546998278 L566.5347347020271,763.5946023122733 M566.5347347020271,763.5946023122733 L560.2633541781483,758.0316782874336 M560.2633541781483,758.0316782874336 L551.8944777587172,753.4824971483166 M551.8944777587172,753.4824971483166 L541.9043505180877,750.2051889032267 M541.9043505180877,750.2051889032267 L530.860863270731,748.3856171853017 M530.860863270731,748.3856171853017 L519.3914232997521,748.1269323164374 M496.0818734649098,798.7295791211307 L482.33186483397577,808.7128491980077 M482.33186483397577,808.7128491980077 L466.011852884579,817.3141542227755 M466.011852884579,817.3141542227755 L447.53334687272377,824.314825627725 M447.53334687272377,824.314825627725 L427.3632731918561,829.536680636027 M427.3632731918561,829.536680636027 L406.0121183395728,832.8466984036381 M406.0121183395728,832.8466984036381 L384.02076162377926,834.1604892500075 M384.02076162377926,834.1604892500075 L361.94662090156606,833.4445577072254 M361.94662090156606,833.4445577072254 L340.349247048551,830.7171606668539 M340.349247048551,830.7171606668539 L319.77588467181675,826.04783256575 M255.67855020418165,788.9398774921808 L245.94840358491194,792.4817567567288 M245.94840358491194,792.4817567567288 L237.94057265011344,797.2541432655535 M237.94057265011344,797.2541432655535 L232.11088193160725,802.9861946506956 M232.11088193160725,802.9861946506956 L228.79177020122336,809.3523563786075 M228.79177020122336,809.3523563786075 L228.1732787034595,815.9907278408141 M228.1732787034595,815.9907278408141 L230.29197142421472,822.5235532899604 M230.29197142421472,822.5235532899604 L235.02850613794195,828.5787420367335 M235.02850613794195,828.5787420367335 L242.11420087372727,833.8110649403892 M242.11420087372727,833.8110649403892 L251.14609154200718,837.9219641908995 M251.14609154200718,837.9219641908995 L261.6098118429259,840.6767027073637 M261.6098118429259,840.6767027073637 L272.90891540706446,841.917906052508 M272.90891540706446,841.917906052508 L284.39907213942524,841.574633034807 M284.39907213942524,841.574633034807 L295.42494569564064,839.6665111839412 M295.42494569564064,839.6665111839412 L305.35786245968904,836.3025750176749 M305.35786245968904,836.3025750176749 L313.6318303643926,831.6749572933988 M313.6318303643926,831.6749572933988 L319.77588467181675,826.04783256575 M255.67855020418165,788.9398774921808 L247.65467113000688,777.0632367776788 M247.65467113000688,777.0632367776788 L242.9903375480257,764.6067959861339 M242.9903375480257,764.6067959861339 L241.80000261210927,751.8852143967467 M241.80000261210927,751.8852143967467 L244.1103086083832,739.2192408680648 M244.1103086083832,739.2192408680648 L249.85976382188113,726.9276106396189 M249.85976382188113,726.9276106396189 L258.90057610693407,715.319039957073 M258.90057610693407,715.319039957073 L271.0027322832358,704.6845853307109 M271.0027322832358,704.6845853307109 L285.85996521601777,695.2904101145436 M285.85996521601777,695.2904101145436 L303.097613542581,687.3712806273572 M289.8309497271142,806.2617871450325 L292.9934167576225,808.5994081788368 M292.9934167576225,808.5994081788368 L295.0956592431608,811.307740796726 M295.0956592431608,811.307740796726 L296.01533684707755,814.229495882446 M296.01533684707755,814.229495882446 L295.69874397913395,817.1949289402457 M295.69874397913395,817.1949289402457 L294.1639977859771,820.0316874703699 M294.1639977859771,820.0316874703699 L291.5000795716453,822.5748115934854 M291.5000795716453,822.5748115934854 L287.86167114392975,824.6763702585546 M287.86167114392975,824.6763702585546 L283.4602321565987,826.2140657583396 M283.4602321565987,826.2140657583396 L278.5516752912,827.098397948869 M278.5516752912,827.098397948869 L273.4215072155147,827.2778759079529 M273.4215072155147,827.2778759079529 L268.3681344720118,826.742056338318 M268.3681344720118,826.742056338318 L263.6854939422474,825.5221362498827 M263.6854939422474,825.5221362498827 L259.645919911118,823.6891222347947 M259.645919911118,823.6891222347947 L256.4842222031905,821.34970765924 M256.4842222031905,821.34970765924 L254.38410179461675,818.6399923751183 M254.38410179461675,818.6399923751183 L253.46741286729417,815.7175822561304 M253.46741286729417,815.7175822561304 L253.78717634481535,812.7523718557416 M253.78717634481535,812.7523718557416 L255.32454873761895,809.9166626672838 M255.32454873761895,809.9166626672838 L257.98994710455247,807.3751741763082 M257.98994710455247,807.3751741763082 L261.6283505554469,805.2754627334928 M261.6283505554469,805.2754627334928 L266.0283005765777,803.7394028658105 M266.0283005765777,803.7394028658105 L270.9342255877319,802.8561200187373 M270.9342255877319,802.8561200187373 L276.0612218537388,802.6768647144822 M276.0612218537388,802.6768647144822 L281.11160945013575,803.2120292501425 M281.11160945013575,803.2120292501425 L285.79213535359827,804.4305666770422 M285.79213535359827,804.4305666770422 L289.8309497271142,806.2617871450325 M347.5794510366512,682.2830697440088 L342.5096798020815,682.6976575610604 M342.5096798020815,682.6976575610604 L337.4157384215236,682.4010387016614 M337.4157384215236,682.4010387016614 L332.59392765037757,681.4104827705814 M332.59392765037757,681.4104827705814 L328.3246838068587,679.7836543172684 M328.3246838068587,679.7836543172684 L324.85622077795097,677.6152372435674 M324.85622077795097,677.6152372435674 L322.39009474938223,675.0314126876356 M322.39009474938223,675.0314126876356 L321.0694867058657,672.1824761546454 M321.0694867058657,672.1824761546454 L320.97090576447835,669.2340774418459 M320.97090576447835,669.2340774418459 L322.0998062968921,666.3575651883947 M322.0998062968921,666.3575651883947 L324.39034988488584,663.7200529451927 M324.39034988488584,663.7200529451927 L327.7092422792486,661.4746921850758 M327.7092422792486,661.4746921850758 L331.8635626754314,659.7518231886143 M331.8635626754314,659.7518231886143 L336.61196555948885,658.6514282133699 M336.61196555948885,658.6514282133699 L341.6786868169962,658.2373424659622 M341.6786868169962,658.2373424659622 L346.7695215622932,658.5335958893647 M346.7695215622932,658.5335958893647 L351.5888735394332,659.5229984528247 M351.5888735394332,659.5229984528247 L355.8568832723801,661.1481503021548 M355.8568832723801,661.1481503021548 L359.3255924748579,663.3147442837221 M359.3255924748579,663.3147442837221 L361.7934184599101,665.8970226527542 M361.7934184599101,665.8970226527542 L363.11677364194105,668.7450457144259 M363.11677364194105,668.7450457144259 L363.21852675682345,671.6933770817202 M363.21852675682345,671.6933770817202 L362.09248677442156,674.5706663135397 M362.09248677442156,674.5706663135397 L359.803853939901,677.2096432379203 M359.803853939901,677.2096432379203 L356.48546844556836,679.4568072829018 M356.48546844556836,679.4568072829018 L352.33013496780745,681.1814050551642 M352.33013496780745,681.1814050551642 L347.5794510366512,682.2830697440088 M453.6367752641122,711.6884496764178 L437.4629329931372,704.0891238422723 M437.4629329931372,704.0891238422723 L418.9761518414078,698.5232973039717 M418.9761518414078,698.5232973039717 L398.93111019862783,695.2170274586238 M398.93111019862783,695.2170274586238 L378.1452243586017,694.3045156987374 M378.1452243586017,694.3045156987374 L357.4657068097226,695.8227897744512 M357.4657068097226,695.8227897744512 L337.7355004661373,699.7102378772371 M337.7355004661373,699.7102378772371 L319.7593476828136,705.8090515944232 M319.7593476828136,705.8090515944232 L304.2713442382377,713.8714644483514 M304.2713442382377,713.8714644483514 L291.90518142272333,723.569589291171 M291.90518142272333,723.569589291171 L283.16825625920694,734.5084772349804 M283.16825625920694,734.5084772349804 L278.42073793432985,746.2419666963573 M278.42073793432985,746.2419666963573 L277.86040662513346,758.2906601847928 M277.86040662513346,758.2906601847928 L281.51401591119617,770.1614037228308 M281.51401591119617,770.1614037228308 L289.23556550600824,781.36745012397 M289.23556550600824,781.36745012397 L300.71171812611897,791.4484970940298 M300.71171812611897,791.4484970940298 L315.4741444418904,799.9898102970146 M315.4741444418904,799.9898102970146 L332.91847512237416,806.6394988562527 M332.91847512237416,806.6394988562527 L352.32905254979084,811.1232872168525 M352.32905254979084,811.1232872168525 L372.9084171374056,813.256089693602 M372.9084171374056,813.256089693602 L393.81046289339264,812.9498180074454 M393.81046289339264,812.9498180074454 L414.17564082975497,810.2171252894474 M414.17564082975497,810.2171252894474 L433.16676008731235,805.1708612955981 M433.16676008731235,805.1708612955981 L450.0038416050946,798.0193006932607 M450.0038416050946,798.0193006932607 L463.9964239482839,789.0573333168934 M463.9964239482839,789.0573333168934 L474.57204893962006,778.654060443326 M474.57204893962006,778.654060443326 L481.29961238906253,767.2373205702215 M481.29961238906253,767.2373205702215 L483.90671573231884,755.2758590213032 M483.90671573231884,755.2758590213032 L482.29031603767174,743.2599279636031 M482.29031603767174,743.2599279636031 L476.5203603785458,731.6811190006342 M476.5203603785458,731.6811190006342 L466.8363056933952,721.0123005399389 M466.8363056933952,721.0123005399389 L453.6367752641122,711.6884496764178 M504.8546999441245,772.9649670811845 L506.761975632568,770.2151271037253 M506.761975632568,770.2151271037253 L509.753629005701,767.8103554532088 M509.753629005701,767.8103554532088 L513.6557246374553,765.890270239482 M513.6557246374553,765.890270239482 L518.241526341666,764.5663019898653 M518.241526341666,764.5663019898653 L523.2446733266181,763.9152668690626 M523.2446733266181,763.9152668690626 L528.3746716110902,763.9749354611265 M528.3746716110902,763.9749354611265 L533.3336382074101,764.7418425258238 M533.3336382074101,764.7418425258238 L537.8336160712947,766.1715038469742 M537.8336160712947,766.1715038469742 L541.6132305644542,768.1809531399408 M541.6132305644542,768.1809531399408 L544.4528490108037,770.6535815445551 M544.4528490108037,770.6535815445551 L546.187332003257,773.4458202661526 M546.187332003257,773.4458202661526 L546.7156704858771,776.3955022406617 M546.7156704858771,776.3955022406617 L546.0068853831638,779.3312337557308 M546.0068853831638,779.3312337557308 L544.1019209574937,782.0823537306665 M544.1019209574937,782.0823537306665 L541.1112763876604,784.4888681891881 M541.1112763876604,784.4888681891881 L537.2086760222502,786.410771310577 M537.2086760222502,786.410771310577 L532.6209716791483,787.7362161087406 M532.6209716791483,787.7362161087406 L527.6149363892727,788.3880386919154 M527.6149363892727,788.3880386919154 L522.4817630447695,788.3282980228278 M522.4817630447695,788.3282980228278 L517.5200319945852,787.5604700805053 M517.5200319945852,787.5604700805053 L513.018340817652,786.1292542054191 M513.018340817652,786.1292542054191 L509.2384593920809,784.1179628774643 M509.2384593920809,784.1179628774643 L506.4000916093354,781.6436442606631 M506.4000916093354,781.6436442606631 L504.6680775248203,778.8502386445625 M504.6680775248203,778.8502386445625 L504.1428614561653,775.9001882706 M504.1428614561653,775.9001882706 L504.8546999441245,772.9649670811845 M537.4087024394936,662.4937520404592 L526.8408558332318,663.5784145851499 M526.8408558332318,663.5784145851499 L516.1129890690547,663.2896548708673 M516.1129890690547,663.2896548708673 L505.7573274022668,661.641828946073 M505.7573274022668,661.641828946073 L496.2874994415514,658.716841445352 M558.5044384712504,616.7513574874854 L565.3917364055258,637.1833660937066 M565.3917364055258,637.1833660937066 L569.2861594524068,651.9022453227196 M569.2861594524068,651.9022453227196 L570.9395717693108,660.7252971149626 M570.9395717693108,660.7252971149626 L571.5887077074926,666.4137975225648 M571.5887077074926,666.4137975225648 L571.7292294892816,672.249775904191 M571.7292294892816,672.249775904191 L571.3418817712327,676.1811069346709 M571.3418817712327,676.1811069346709 L570.2619204209801,680.0125477552477 M570.2619204209801,680.0125477552477 L568.6541493782191,682.5753743193706 M568.6541493782191,682.5753743193706 L566.9144073740267,683.9073829034187 M566.9144073740267,683.9073829034187 L565.0738847159138,684.4878068072262 M565.0738847159138,684.4878068072262 L562.5987999990214,684.4454975077132 M562.5987999990214,684.4454975077132 L558.9583980533333,683.2649202550128 M558.9583980533333,683.2649202550128 L553.729060358274,680.0155574128455 M553.729060358274,680.0155574128455 L545.2516539379354,672.0824173745148 M545.2516539379354,672.0824173745148 L537.4087024394936,662.4937520404592 M519.6382912806991,608.204546070348 L530.3572833362501,608.3955309444101 M530.3572833362501,608.3955309444101 L540.7431891865369,609.9451475888535 M540.7431891865369,609.9451475888535 L550.2827940089537,612.7769839095611 M550.2827940089537,612.7769839095611 L558.5044384712504,616.7513574874854 M496.2874994415514,658.716841445352 L496.0818734649098,798.7295791211307 M566.4550541738481,684.6279994711786 L570.4533954450491,690.9660615358016 M570.4533954450491,690.9660615358016 L571.6888517088069,697.6706261575414 M571.6888517088069,697.6706261575414 L570.0872839086608,704.3471167367356 M570.0872839086608,704.3471167367356 L565.7416336358659,710.6022300488872 M565.7416336358659,710.6022300488872 L558.9067027985601,716.0671110443554 M558.9067027985601,716.0671110443554 L549.984474321607,720.4192459586133 M549.984474321607,720.4192459586133 L549.9279617013862,746.668820511509 M566.393097877301,710.8655884885372 L570.3900949302307,717.2057745900734 M570.3900949302307,717.2057745900734 L571.6251280469551,723.9125853283549 M571.6251280469551,723.9125853283549 L570.024084015611,730.5913118586213 M570.024084015611,730.5913118586213 L565.6798744987768,736.8485193145655 M565.6798744987768,736.8485193145655 L558.847217274491,742.3152293475836 M558.847217274491,742.3152293475836 L549.9279617013862,746.668820511509 M566.4550541738481,684.6279994711786 L566.393097877301,710.8655884885372 M551.388838249504,621.3492300151887 L519.9348469017629,616.5029378332767 M556.0457309768788,631.2568819447392 L551.388838249504,621.3492300151887 M556.0457309768788,631.2568819447392 L557.2647592307823,626.4453522218455 M557.2647592307823,626.4453522218455 L558.0848988782869,621.606532560402 M558.0848988782869,621.606532560402 L558.5044384712504,616.7513574874854 M551.2559647996244,682.6368696232084 L544.0131117967203,681.5191735770231 M543.9586472699754,707.7557205021767 L544.0131117967203,681.5191735770231 M543.9586472699754,707.7557205021767 L516.035090407813,703.4437647020438 M516.035090407813,703.4437647020438 L517.0657349229489,104.45083679171023 M517.0657349229489,104.45083679171023 L545.2021679839795,108.72931716788594 M545.1469073399078,135.3493681983383 L545.2021679839795,108.72931716788594 M545.1469073399078,135.3493681983383 L552.4400945548225,136.45915126419112 M552.4400945548225,136.45915126419112 L552.2755215568327,212.36815038438328 M552.2755215568327,212.36815038438328 L550.4270444152447,215.93264790584954 M520.6511935567705,211.3924055707117 L550.4270444152447,215.93264790584954 M551.2559647996244,682.6368696232084 L551.388838249504,621.3492300151887 M550.8479405165351,207.57044070438042 L541.3370165386584,204.81951723231467 M541.3370165386584,204.81951723231467 L531.0056768595003,203.31778328893535 M531.0056768595003,203.31778328893535 L520.3529592876476,203.13762519097187 M550.8479405165351,207.57044070438042 L550.8486856397687,210.35956001441596 M550.8486856397687,210.35956001441596 L550.7083544710549,213.14773309761526 M550.7083544710549,213.14773309761526 L550.4270444152447,215.93264790584954 M527.2260039907469,258.2336209805425 L540.2985664132299,235.98211451116376 M540.2985664132299,235.98211451116376 L549.984946702743,219.80645360715653 M549.984946702743,219.80645360715653 L557.1983706657427,207.73538154555587 M557.1983706657427,207.73538154555587 L561.4954099347,200.43820493272648 M561.4954099347,200.43820493272648 L564.8253520949346,194.65872244842464 M564.8253520949346,194.65872244842464 L567.3435272458312,190.154374387678 M567.3435272458312,190.154374387678 L569.2810300595864,186.54592724261175 M569.2810300595864,186.54592724261175 L571.0209782392132,183.09246331425612 M571.0209782392132,183.09246331425612 L572.2645203709292,180.30319521356074 M572.2645203709292,180.30319521356074 L572.8554343983094,178.55271450913142 M572.8554343983094,178.55271450913142 L572.9388268022665,177.67340671900013 M572.9388268022665,177.67340671900013 L572.5420414984343,177.42325413989192 M572.5420414984343,177.42325413989192 L571.3089653939652,178.27345064883932 M571.3089653939652,178.27345064883932 L568.6915141995182,181.14109910170973 M568.6915141995182,181.14109910170973 L563.9109434171737,187.44707974387137 M563.9109434171737,187.44707974387137 L557.5444737618047,196.85076245728803 M557.5444737618047,196.85076245728803 L550.8479405165351,207.57044070438042 M496.88277963690825,253.38473702290037 L506.2874477512547,256.26827092586234 M506.2874477512547,256.26827092586234 L516.567998996073,257.9111724950555 M516.567998996073,257.9111724950555 L527.2260039907469,258.2336209805425 M497.0912741209015,111.41880464905887 L496.88277963690825,253.38473702290037 M551.1609138024472,173.97429722686678 L551.2182533056067,147.34064341416078 M551.1609138024472,173.97429722686678 L560.1450290741665,169.6529188740164 M560.1450290741665,169.6529188740164 L567.0272890257922,164.22666765681225 M567.0272890257922,164.22666765681225 L571.4029303479742,158.01578295480275 M571.4029303479742,158.01578295480275 L573.0153999176138,151.38651563953573 M573.0153999176138,151.38651563953573 L571.7711332776337,144.72938862742816 M571.7711332776337,144.72938862742816 L567.7448076634909,138.43618554945613 M567.7448076634909,138.43618554945613 L567.8076696584187,111.81504646195299 M551.2182533056067,147.34064341416078 L560.2053848826487,143.0207856598476 M560.2053848826487,143.0207856598476 L567.0899515835165,137.59644428143656 M567.0899515835165,137.59644428143656 L571.4670545882757,131.38774620815985 M571.4670545882757,131.38774620815985 L573.080055426942,124.76081355879592 M573.080055426942,124.76081355879592 L571.8353592922377,118.10603179274744 M571.8353592922377,118.10603179274744 L567.8076696584187,111.81504646195299 M314.9690143632414,138.56490358613053 L315.3052462463558,543.2900511756632 M302.55984541697785,142.81002983511837 L306.6098208069986,141.3139659074635 M306.6098208069986,141.3139659074635 L310.7478505551148,139.89836579750613 M310.7478505551148,139.89836579750613 L314.9690143632414,138.56490358613053 M254.5840889781768,101.71601227339556 L254.81015256628012,243.66374793570236 M261.8117445155041,250.90395517703456 L259.3315487313778,248.53685597537725 M259.3315487313778,248.53685597537725 L256.99676450626947,246.12248451214862 M256.99676450626947,246.12248451214862 L254.81015256628012,243.66374793570236 M261.8117445155041,250.90395517703456 L262.4214194521498,656.2229827994047 M255.45559607039536,648.9446013265551 L257.63104205840057,651.4163032346771 M257.63104205840057,651.4163032346771 L259.9538987593206,653.8434045216947 M259.9538987593206,653.8434045216947 L262.4214194521498,656.2229827994047 M255.45559607039536,648.9446013265551 L255.67855020418165,788.9398774921808 M302.95954404588923,547.5576802389347 L306.98880321907615,546.0536864342893 M306.98880321907615,546.0536864342893 L311.10566902529774,544.6305823976322 M311.10566902529774,544.6305823976322 L315.3052462463558,543.2900511756632 M319.24178831663914,138.49476060200868 L319.3521079211018,280.5114252184096 M297.29981486786625,293.3749401987959 L306.26060212020957,290.0523887409553 M306.26060212020957,290.0523887409553 L313.731881245743,285.69403770979693 M313.731881245743,285.69403770979693 L319.3521079211018,280.5114252184096 M232.23907095084294,256.2067142773684 L227.87744662709974,242.58686302765778 M227.87744662709974,242.58686302765778 L226.95934794358595,235.09660986722622 M226.95934794358595,235.09660986722622 L228.0248324580053,231.22427231159907 M228.0248324580053,231.22427231159907 L229.71000882665209,229.8504810548926 M229.71000882665209,229.8504810548926 L231.84943673773068,229.48602055755165 M231.84943673773068,229.48602055755165 L234.22962464041845,229.830993680964 M234.22962464041845,229.830993680964 L236.81305841411427,230.69796351483438 M236.81305841411427,230.69796351483438 L240.21171300340455,232.3311108048606 M240.21171300340455,232.3311108048606 L244.2468281583836,234.76695005022074 M244.2468281583836,234.76695005022074 L248.29839665419684,237.6118065695212 M248.29839665419684,237.6118065695212 L252.07074722268538,240.54916302402285 M252.07074722268538,240.54916302402285 L256.6164195362576,244.40604747885493 M256.6164195362576,244.40604747885493 L262.6039690138983,249.96326342027766 M262.6039690138983,249.96326342027766 L270.2835097782944,257.84370499768227 M270.2835097782944,257.84370499768227 L279.89334586514974,268.934749415823 M279.89334586514974,268.934749415823 L289.3871618777564,281.44190622002486 M289.3871618777564,281.44190622002486 L297.29981486786625,293.3749401987959 M254.81015256628012,243.66374793570236 L245.72286403310932,246.85858351568112 M245.72286403310932,246.85858351568112 L238.0758204720142,251.10791525531323 M238.0758204720142,251.10791525531323 L232.23907095084294,256.2067142773684 M226.9224707277039,190.373997992005 L226.87068595310296,163.73457643638778 M226.9224707277039,190.373997992005 L228.97529159962505,196.9772779481743 M228.97529159962505,196.9772779481743 L233.76464084355877,203.10322478247107 M233.76464084355877,203.10322478247107 L241.00951719441542,208.39055168124193 M241.00951719441542,208.39055168124193 L250.2836953958323,212.5271809455536 M250.2836953958323,212.5271809455536 L261.0408354515433,215.2687486806493 M261.0408354515433,215.2687486806493 L272.64663247190947,216.4532329559628 M272.64663247190947,216.4532329559628 L272.6102153309008,189.80464901135105 M226.87068595310296,163.73457643638778 L228.9241891515138,170.33553535183748 M228.9241891515138,170.33553535183748 L233.71514308132538,176.4593296047848 M233.71514308132538,176.4593296047848 L240.96245265568444,181.74479912722097 M240.96245265568444,181.74479912722097 L250.23974958879518,185.87997558064808 M250.23974958879518,185.87997558064808 L261.00051004518144,188.62058062334228 M261.00051004518144,188.62058062334228 L272.6102153309008,189.80464901135105 M503.7178431412143,651.5914912074538 L501.3845401214428,654.0152850850839 M501.3845401214428,654.0152850850839 L498.90677728799733,656.3913527434778 M498.90677728799733,656.3913527434778 L496.2874994415514,658.716841445352 M319.66708391727093,685.986414256583 L319.77588467181675,826.04783256575 M307.02480954304656,681.9555727175837 L311.15705010847256,683.3828083496137 M311.15705010847256,683.3828083496137 L315.37282990565194,684.7269614087197 M315.37282990565194,684.7269614087197 L319.66708391727093,685.986414256583 M306.64468798981125,276.5016918639115 L307.02480954304656,681.9555727175837 M319.3521079211018,280.5114252184096 L315.03572318822114,279.25856725223167 M315.03572318822114,279.25856725223167 L310.79821947301343,277.92145304881 M310.79821947301343,277.92145304881 L306.64468798981125,276.5016918639115 M504.3512923731274,246.29675359568876 L502.00600785278664,248.7078351064695 M502.00600785278664,248.7078351064695 L499.5155169937151,251.07144220506746 M499.5155169937151,251.07144220506746 L496.88277963690825,253.38473702290037 M504.3512923731274,246.29675359568876 L503.7178431412143,651.5914912074538 M347.3049165209591,31.493587472645743 L347.2899473203948,-3.991197603326725 M347.3049165209591,31.493587472645743 L342.19318865394115,31.904668839917008 M342.19318865394115,31.904668839917008 L337.05709628823297,31.610558679655185 M337.05709628823297,31.610558679655185 L332.19539420469033,30.62838079286888 M332.19539420469033,30.62838079286888 L327.89084054981396,29.015312817830647 M327.89084054981396,29.015312817830647 L324.3937030070957,26.865238954998745 M324.3937030070957,26.865238954998745 L321.9072038828576,24.303274220406763 M321.9072038828576,24.303274220406763 L320.5757057897708,21.47844366286631 M320.5757057897708,21.47844366286631 L320.4763467895983,18.554996090698694 M320.4763467895983,18.554996090698694 L321.6146219392278,15.702830136849059 M321.6146219392278,15.702830136849059 L323.92414405210764,13.087644381700954 M323.92414405210764,13.087644381700954 L327.27051310513843,10.861292849249708 M327.27051310513843,10.861292849249708 L331.45921077105316,9.153011094864212 M331.45921077105316,9.153011094864212 L336.24689510521284,8.061933628865859 M336.24689510521284,8.061933628865859 L341.35552234935915,7.6513542516770485 M341.35552234935915,7.6513542516770485 L346.48845646993004,7.945099070975118 M346.48845646993004,7.945099070975118 L351.34765894923345,8.92612387307696 M351.34765894923345,8.92612387307696 L355.65095794424303,10.537515646137138 M355.65095794424303,10.537515646137138 L359.14834585552893,12.685766907939126 M359.14834585552893,12.685766907939126 L361.63657316172663,15.246185874726166 M361.63657316172663,15.246185874726166 L362.9708640412137,18.070103198501556 M362.9708640412137,18.070103198501556 L363.07344788722304,20.993483391673976 M363.07344788722304,20.993483391673976 L361.9380808356181,23.84642617283771 M361.9380808356181,23.84642617283771 L359.63050114889097,26.463076194264545 M359.63050114889097,26.463076194264545 L356.2846474024539,28.691230542628375 M356.2846474024539,28.691230542628375 L352.0949198695069,30.401240657242113 M352.0949198695069,30.401240657242113 L347.3049165209591,31.493587472645743 M289.07613755122424,154.42693841988302 L289.03497971518834,118.88417336752161 M289.07613755122424,154.42693841988302 L292.26481433073207,156.74491083676392 M292.26481433073207,156.74491083676392 L294.38446038473273,159.43048172192027 M294.38446038473273,159.43048172192027 L295.31172105031544,162.32768484333607 M295.31172105031544,162.32768484333607 L294.9924457621283,165.26820255721145 M294.9924457621283,165.26820255721145 L293.44490294764574,168.08113030128106 M293.44490294764574,168.08113030128106 L290.7588139593936,170.60289323886008 M290.7588139593936,170.60289323886008 L287.09014690629573,172.6868017272671 M287.09014690629573,172.6868017272671 L282.65212003999807,174.21158388957824 M282.65212003999807,174.21158388957824 L277.7027744370376,175.08849003846524 M277.7027744370376,175.08849003846524 L272.52999113201446,175.26646089933413 M272.52999113201446,175.26646089933413 L267.434657740146,174.73514071164004 M267.434657740146,174.73514071164004 L262.71315398357217,173.52546497947873 M262.71315398357217,173.52546497947873 L258.6400758779754,171.70784498679686 M258.6400758779754,171.70784498679686 L255.4521812908908,169.38807933053548 M255.4521812908908,169.38807933053548 L253.3346927325705,166.70112601224866 M253.3346927325705,166.70112601224866 L252.41047059696137,163.80326796799656 M252.41047059696137,163.80326796799656 L252.73296936201461,160.86297287399447 M252.73296936201461,160.86297287399447 L254.28318214617622,158.05109429468382 M254.28318214617622,158.05109429468382 L256.9707759325131,155.53096671349556 M256.9707759325131,155.53096671349556 L260.6394378837852,153.44890513592296 M260.6394378837852,153.44890513592296 L265.07595091702404,151.9257583299683 M265.07595091702404,151.9257583299683 L270.02262075367656,151.0499013476326 M270.02262075367656,151.0499013476326 L275.1921793515867,150.87215310405577 M275.1921793515867,150.87215310405577 L280.2844778316201,151.4028183682048 M280.2844778316201,151.4028183682048 L285.0038317303198,152.61111167192914 M285.0038317303198,152.61111167192914 L289.07613755122424,154.42693841988302 M453.6367752641122,711.6884496764178 L454.27324999674863,25.151876321147427 M505.8840405528373,121.41023940299476 L505.9401672548671,85.8830118293148 M505.8840405528373,121.41023940299476 L507.807062360083,118.68355414962002 M507.807062360083,118.68355414962002 L510.8234621636259,116.299034207212 M510.8234621636259,116.299034207212 L514.7578650442963,114.39512066778309 M514.7578650442963,114.39512066778309 L519.3816579205524,113.08230427163676 M519.3816579205524,113.08230427163676 L524.4262746917348,112.43675312259063 M524.4262746917348,112.43675312259063 L529.5988156023142,112.49591909095562 M529.5988156023142,112.49591909095562 L534.5989296229576,113.25636617834141 M534.5989296229576,113.25636617834141 L539.1362723393386,114.67398552442586 M539.1362723393386,114.67398552442586 L542.9473000550788,116.66651075954587 M542.9473000550788,116.66651075954587 L545.8105548727018,119.1183164211526 M545.8105548727018,119.1183164211526 L547.55952192121,121.88704394184907 M547.55952192121,121.88704394184907 L548.0923469081861,124.81189255624719 M548.0923469081861,124.81189255624719 L547.3777855155006,127.72291177549874 M547.3777855155006,127.72291177549874 L545.4571134538677,130.45087674481965 M545.4571134538677,130.45087674481965 L542.4417393739573,132.8371391928656 M542.4417393739573,132.8371391928656 L538.5068234076454,134.7428702888041 M538.5068234076454,134.7428702888041 L533.881096181588,136.05716291400353 M533.881096181588,136.05716291400353 L528.8335431039096,136.703501390454 M528.8335431039096,136.703501390454 L523.6577741468083,136.64426334184787 M523.6577741468083,136.64426334184787 L518.6548495903752,135.88289555471522 M518.6548495903752,135.88289555471522 L514.1157650005309,134.4637219378364 M514.1157650005309,134.4637219378364 L510.3044658787154,132.4693550749621 M510.3044658787154,132.4693550749621 L507.4424824467078,130.01585949337618 M507.4424824467078,130.01585949337618 L505.6960253696212,127.24596532071916 M505.6960253696212,127.24596532071916 L505.1663748018109,124.32074837802952 M505.1663748018109,124.32074837802952 L505.8840405528373,121.41023940299476 M294.1167946541464,125.63098100514401 L298.3588553396692,124.24810472644953 M298.3588553396692,124.24810472644953 L302.6688065495684,122.93524262248593 M302.6688065495684,122.93524262248593 L307.0430877434769,121.69346475667265 M314.9690143632414,138.56490358613053 L307.0430877434769,121.69346475667265 M367.6598772771849,107.51344442984731 L350.3987027737606,91.04230622830221 M350.3987027737606,91.04230622830221 L332.37582145722143,70.61209625150713 M332.37582145722143,70.61209625150713 L319.18735366276076,95.78870246328188 M319.18735366276076,95.78870246328188 L306.54995963865065,116.81118552154777 M306.54995963865065,116.81118552154777 L307.0430877434769,121.69346475667265 M308.4193212763464,45.12002032400267 L306.4789359221694,40.99812192392483 M306.4789359221694,40.99812192392483 L332.3488022781149,26.34912211560686 M332.3488022781149,26.34912211560686 L367.64734649744156,31.709739526164526 M370.17033541154314,35.742094310534526 L369.59380662792216,35.82964885669918 M364.1816736214427,23.066800733153684 L370.17033541154314,35.742094310534526 M307.8425084607562,45.20761950937748 L301.87286632008,32.52610454328914 M308.4193212763464,45.12002032400267 L307.8425084607562,45.20761950937748 M307.81805589227906,18.61941513156745 L301.8464204228342,5.942391816371526 M307.81805589227906,18.61941513156745 L307.8425084607562,45.20761950937748 M315.8858227546205,34.433225739680665 L308.395062207642,18.531846963257976 M351.2256772767659,39.80158441807714 L315.8858227546205,34.433225739680665 M377.10424428864457,25.138480403526785 L351.2256772767659,39.80158441807714 M370.16678648467973,9.157242251436855 L369.5900643906045,9.244765782070886 M364.1761186077432,-3.5135597939915897 L370.16678648467973,9.157242251436855 M308.395062207642,18.531846963257976 L307.81805589227906,18.61941513156745 M370.16678648467973,9.157242251436855 L370.17033541154314,35.742094310534526 M351.44857856033894,638.2878087358763 L377.1317922778341,623.5095498505975 M316.3754172926575,632.8773001591974 L351.44857856033894,638.2878087358763 M308.94096904180066,616.8510043174158 L316.3754172926575,632.8773001591974 M308.36831708278334,616.9392606714405 L308.94096904180066,616.8510043174158 M302.4415393124404,604.1625789641248 L308.36831708278334,616.9392606714405 M370.24664885897914,607.4027084317646 L364.3011247438421,594.6322496224477 M369.67427687623564,607.4909201209783 L370.24664885897914,607.4027084317646 M347.55735947039966,629.9145763793515 L352.31120739862666,628.8136502974781 M352.31120739862666,628.8136502974781 L356.4693085328503,627.0902088580556 M356.4693085328503,627.0902088580556 L359.7899043699245,624.8445516750355 M359.7899043699245,624.8445516750355 L362.0800618371678,622.2073445661065 M362.0800618371678,622.2073445661065 L363.2068523557478,619.3319852419229 M363.2068523557478,619.3319852419229 L363.10503238576166,616.3856317243994 M363.10503238576166,616.3856317243994 L361.78079720788116,613.5395195021104 M361.78079720788116,613.5395195021104 L359.3113295329612,610.9589739129043 M359.3113295329612,610.9589739129043 L355.8403125629574,608.7938339501 M355.8403125629574,608.7938339501 L351.56946311440515,607.1697728579027 M351.56946311440515,607.1697728579027 L346.7469043816899,606.1810343980732 M346.7469043816899,606.1810343980732 L341.6526819172492,605.8849798314111 M341.6526819172492,605.8849798314111 L336.58258850615545,606.2987876292991 M336.58258850615545,606.2987876292991 L331.8310246686305,607.3984440074139 M331.8310246686305,607.3984440074139 L327.6739379615887,609.1201566779234 M327.6739379615887,609.1201566779234 L324.35283455056236,611.3640105861398 M324.35283455056236,611.3640105861398 L322.06076379079053,613.9997530248195 M322.06076379079053,613.9997530248195 L320.9311089105364,616.8743353708335 M320.9311089105364,616.8743353708335 L321.029752484564,619.8207562376228 M321.029752484564,619.8207562376228 L322.35123686459434,622.6677819261338 M322.35123686459434,622.6677819261338 L324.81900232035053,625.2498736922341 M324.81900232035053,625.2498736922341 L328.28977278053503,627.4168367356219 M328.28977278053503,627.4168367356219 L332.56185798697885,629.0425744252057 M332.56185798697885,629.0425744252057 L337.3868787852522,630.0324662475991 M337.3868787852522,630.0324662475991 L342.4842120222395,630.3288862482189 M342.4842120222395,630.3288862482189 L347.55735947039966,629.9145763793515 M370.24664885897914,607.4027084317646 L370.24315092973876,581.1998772807103 M369.6705884145081,581.2880592580968 L370.24315092973876,581.1998772807103 M367.73750896657805,577.1386229508357 L332.6817216691439,571.7395774033869 M332.6817216691439,571.7395774033869 L306.98997072141117,586.4935656289351 M306.98997072141117,586.4935656289351 L308.9170586566575,590.6449915040273 M308.3442159798928,590.7332181453595 L308.9170586566575,590.6449915040273 M302.4154734079886,577.9608392585994 L308.3442159798928,590.7332181453595 M370.24315092973876,581.1998772807103 L364.2956495290204,568.4337212663695 M332.6817216691439,571.7395774033869 L332.65504318626625,528.034733783356 M332.65504318626625,528.034733783356 L350.5615419363335,513.2943675513313 M332.3488022781149,26.34912211560686 L332.37582145722143,70.61209625150713 M351.44857856033894,638.2878087358763 L351.2256772767659,39.80158441807714 M319.51471694386044,518.0673615234283 L311.6731713805671,519.8447573712574 M311.6731713805671,519.8447573712574 L303.98647711565286,521.8340351828432 M303.98647711565286,521.8340351828432 L296.4718780336922,524.0307613427824 M319.51471694386044,518.0673615234283 L332.65504318626625,528.034733783356 M306.9326256686959,525.2815600636695 L315.3052462463558,543.2900511756632 M319.51471694386044,518.0673615234283 L306.9326256686959,525.2815600636695 M308.36831708278334,616.9392606714405 L308.3442159798928,590.7332181453595 M229.15853995250754,667.5592108667772 L232.8361708707181,661.7425922912824 M232.8361708707181,661.7425922912824 L238.65234580629487,656.5370305599488 M238.65234580629487,656.5370305599488 L246.3186632644735,652.199666159906 M246.3186632644735,652.199666159906 L255.45559607039536,648.9446013265551 M287.2881249398648,701.1214698621768 L275.79693262257376,717.0004877014032 M275.79693262257376,717.0004877014032 L266.29121998200173,726.1335871404392 M266.29121998200173,726.1335871404392 L259.919777541245,730.2467479879772 M259.919777541245,730.2467479879772 L255.43300044628165,732.0986711631006 M255.43300044628165,732.0986711631006 L250.37478245117893,733.0132093921508 M250.37478245117893,733.0132093921508 L246.56127713106378,732.7370331381051 M246.56127713106378,732.7370331381051 L242.26193764694273,731.1772133916853 M242.26193764694273,731.1772133916853 L238.65486996397203,728.5108708056252 M238.65486996397203,728.5108708056252 L236.03186035058968,725.466676306733 M236.03186035058968,725.466676306733 L233.9895939957768,722.1515343653521 M233.9895939957768,722.1515343653521 L231.96440088492116,717.5935824154697 M231.96440088492116,717.5935824154697 L229.95103854441388,710.7395838602454 M229.95103854441388,710.7395838602454 L228.36307011599388,700.6496805556319 M228.36307011599388,700.6496805556319 L227.9131740362115,683.7616863974328 M227.9131740362115,683.7616863974328 L229.15853995250754,667.5592108667772 M319.66708391727093,685.986414256583 L314.00022752531714,691.2517663046461 M314.00022752531714,691.2517663046461 L306.4531848958452,695.666699584441 M306.4531848958452,695.666699584441 L297.39958636480685,699.0119997677681 M297.39958636480685,699.0119997677681 L287.2881249398648,701.1214698621768 M273.3938001256068,763.2001600558798 L261.868188865263,762.0072641902957 M261.868188865263,762.0072641902957 L251.18532876786105,759.2462253359208 M251.18532876786105,759.2462253359208 L241.97513813655235,755.0802118573765 M241.97513813655235,755.0802118573765 L234.7801851230023,749.7553179055493 M234.7801851230023,749.7553179055493 L230.02376037824058,743.5858329699508 M230.02376037824058,743.5858329699508 L227.98494010925555,736.9356073295592 M227.98494010925555,736.9356073295592 L228.03597779165756,763.1907054198161 M273.4296915312058,789.4640321914303 L261.90793213221707,788.2707380766365 M261.90793213221707,788.2707380766365 L251.22864021562833,785.5087773543926 M251.22864021562833,785.5087773543926 L242.02152336877134,781.3413726632434 M242.02152336877134,781.3413726632434 L234.82896855523018,776.0147000682591 M234.82896855523018,776.0147000682591 L230.07412545361004,769.843153772218 M230.07412545361004,769.843153772218 L228.03597779165756,763.1907054198161 M273.3938001256068,763.2001600558798 L273.4296915312058,789.4640321914303 M289.77021207452304,753.8104358642154 L289.8309497271142,806.2617871450325 M289.77021207452304,753.8104358642154 L285.72870271412825,751.9804354485486 M285.72870271412825,751.9804354485486 L281.04505241220227,750.762709936395 M281.04505241220227,750.762709936395 L275.99129235341104,750.2279019982225 M275.99129235341104,750.2279019982225 L270.8608712141925,750.4070378577718 M270.8608712141925,750.4070378577718 L265.95166759035,751.2897321554271 M265.95166759035,751.2897321554271 L261.54877546682377,752.824768578082 M261.54877546682377,752.824768578082 L257.9079372308627,754.9230811559904 M257.9079372308627,754.9230811559904 L255.24075290149835,757.4628766625406 M255.24075290149835,757.4628766625406 L253.70234732525142,760.2966971334668 M253.70234732525142,760.2966971334668 L253.38236379590558,763.2599328542351 M253.38236379590558,763.2599328542351 L254.29965894648245,766.1803970883968 M254.29965894648245,766.1803970883968 L256.4011769624415,768.8883083693871 M256.4011769624415,768.8883083693871 L259.56498269150484,771.2261656713431 M259.56498269150484,771.2261656713431 L263.60725272175154,773.0579596373045 M263.60725272175154,773.0579596373045 L268.29302047421237,774.2770678134582 M268.29302047421237,774.2770678134582 L273.3497696693226,774.8125307867732 M273.3497696693226,774.8125307867732 L278.48336685853576,774.6331722719982 M278.48336685853576,774.6331722719982 L283.3952058566439,773.7494286290159 M283.3952058566439,773.7494286290159 L287.79958893969336,772.2127565713429 M287.79958893969336,772.2127565713429 L291.4404321624579,770.112596767888 M291.4404321624579,770.112596767888 L294.10613436357573,767.5711656262829 M294.10613436357573,767.5711656262829 L295.64191023149687,764.7362958118199 M295.64191023149687,764.7362958118199 L295.9587189133562,761.7728374332437 M295.9587189133562,761.7728374332437 L295.038431089893,758.8530282335172 M295.038431089893,758.8530282335172 L292.9347881577918,756.1464996212242 M292.9347881577918,756.1464996212242 L289.77021207452304,753.8104358642154 M347.55735947039966,629.9145763793515 L347.5794510366512,682.2830697440088 M504.93752867720195,720.5358176164971 L504.8546999441245,772.9649670811845 M504.93752867720195,720.5358176164971 L504.2252212355272,723.4690801325141 M504.2252212355272,723.4690801325141 L504.75079409084196,726.4171622321848 M504.75079409084196,726.4171622321848 L506.4839703238234,729.2087043596682 M506.4839703238234,729.2087043596682 L509.3242383605808,731.6813725728543 M509.3242383605808,731.6813725728543 L513.1066478578574,733.6913224956864 M513.1066478578574,733.6913224956864 L517.61134796592,735.1215839231904 M517.61134796592,735.1215839231904 L522.5763937417919,735.8888998459585 M522.5763937417919,735.8888998459585 L527.7129946484724,735.9486006783262 M527.7129946484724,735.9486006783262 L532.7223707845603,735.2972127549108 M532.7223707845603,735.2972127549108 L537.3131347619798,733.9726518575516 M537.3131347619798,733.9726518575516 L541.2183355245501,732.0520305036819 M541.2183355245501,732.0520305036819 L544.2109700691391,729.6471211894323 M544.2109700691391,729.6471211894323 L546.1171985097442,726.8978364513086 M546.1171985097442,726.8978364513086 L546.8264484801055,723.9640636083477 M546.8264484801055,723.9640636083477 L546.2977490419697,721.0163499080586 M546.2977490419697,721.0163499080586 L544.5621006092736,718.22597467346 M544.5621006092736,718.22597467346 L541.7205802477264,715.7549966749104 M541.7205802477264,715.7549966749104 L537.9384380414372,713.7468887825365 M537.9384380414372,713.7468887825365 L533.4354535358508,712.3181819100547 M533.4354535358508,712.3181819100547 L528.4731759078408,711.5517868647321 M528.4731759078408,711.5517868647321 L523.3397543086696,711.492158110764 M523.3397543086696,711.492158110764 L518.3332703254612,712.142758570571 M518.3332703254612,712.142758570571 L513.7444115289687,713.4658429224519 M513.7444115289687,713.4658429224519 L509.8397161696182,715.3846463690145 M509.8397161696182,715.3846463690145 L506.8460714654277,717.7878128728198 M506.8460714654277,717.7878128728198 L504.93752867720195,720.5358176164971 M537.4087024394936,662.4937520404592 L541.2319339807297,658.152907480422 M541.2319339807297,658.152907480422 L544.6916265473845,653.712877402143 M544.6916265473845,653.712877402143 L547.7800575371185,649.18374356448 M535.1980240746212,656.4464730797706 L547.7800575371185,649.18374356448 M503.7178431412143,651.5914912074538 L535.1980240746212,656.4464730797706 M556.0457309768788,631.2568819447392 L560.8695019746507,659.1300096183681 M560.8695019746507,659.1300096183681 L547.7800575371185,649.18374356448 M527.8287648574611,716.641958118989 L535.0776507818618,717.7616531057798 M535.0776507818618,717.7616531057798 L560.7692672602893,702.9084997097721 M560.7692672602893,702.9084997097721 L551.2559647996244,682.6368696232084 M544.1655359767565,681.1883833109982 L544.0131117967203,681.5191735770231 M566.4550541738481,684.6279994711786 L544.1655359767565,681.1883833109982 M527.6760613265058,716.9733488882389 L549.984474321607,720.4192459586133 M527.8287648574611,716.641958118989 L527.6760613265058,716.9733488882389 M527.6270027055126,743.2217704504991 L549.9279617013862,746.668820511509 M527.6270027055126,743.2217704504991 L527.6760613265058,716.9733488882389 M499.83287530650216,738.570582067449 L527.7796556614802,742.8902687878724 M490.35195834132054,718.2824344909159 L499.83287530650216,738.570582067449 M516.035090407813,703.4437647020438 L490.35195834132054,718.2824344909159 M544.1110210594707,707.4248193441069 L543.9586472699754,707.7557205021767 M566.393097877301,710.8655884885372 L544.1110210594707,707.4248193441069 M527.7796556614802,742.8902687878724 L527.6270027055126,743.2217704504991 M544.1110210594707,707.4248193441069 L544.1655359767565,681.1883833109982 M560.7692672602893,702.9084997097721 L560.8695019746507,659.1300096183681 M491.1872514417633,119.17433819395234 L517.0657349229489,104.45083679171023 M490.35195834132054,718.2824344909159 L491.1872514417633,119.17433819395234 M500.74089996086786,139.30515928519105 L491.1872514417633,119.17433819395234 M528.9009120916605,143.59136904010592 L500.74089996086786,139.30515928519105 M528.7471044813913,143.92030190847322 L528.9009120916605,143.59136904010592 M551.2182533056067,147.34064341416078 L528.7471044813913,143.92030190847322 M545.3556922014732,108.4009846730072 L567.8076696584187,111.81504646195299 M545.2021679839795,108.72931716788594 L545.3556922014732,108.4009846730072 M545.3556922014732,108.4009846730072 L545.3003804370876,135.0209199205948 M545.1469073399078,135.3493681983383 L545.3003804370876,135.0209199205948 M552.4400945548225,136.45915126419112 L562.020117741314,156.5873400371104 M562.020117741314,156.5873400371104 L536.1503886764632,171.3354848054336 M536.1503886764632,171.3354848054336 L528.851084408263,170.22370311937226 M528.6973281067885,170.55275178091938 L528.851084408263,170.22370311937226 M551.1609138024472,173.97429722686678 L528.6973281067885,170.55275178091938 M545.3003804370876,135.0209199205948 L567.7448076634909,138.43618554945613 M562.020117741314,156.5873400371104 L561.9185986484486,200.92679497961 M561.9185986484486,200.92679497961 L556.9880267578003,208.3569797379261 M556.9880267578003,208.3569797379261 L552.2755215568327,212.36815038438328 M534.1520561012584,250.8451828179946 L531.9685774610806,253.34540195499224 M531.9685774610806,253.34540195499224 L529.6592632688337,255.80890108041558 M529.6592632688337,255.80890108041558 L527.2260039907469,258.2336209805425 M534.1520561012584,250.8451828179946 L536.0012963694888,247.2794208153682 M536.0012963694888,247.2794208153682 L548.6788367791228,226.18454353031004 M548.6788367791228,226.18454353031004 L561.9185986484486,200.92679497961 M534.1520561012584,250.8451828179946 L504.3512923731274,246.29675359568876 M528.7471044813913,143.92030190847322 L528.6973281067885,170.55275178091938 M308.94096904180066,616.8510043174158 L308.9170586566575,590.6449915040273 M316.3754172926575,632.8773001591974 L315.8858227546205,34.433225739680665 M308.4193212763464,45.12002032400267 L308.395062207642,18.531846963257976 M306.4789359221694,40.99812192392483 L306.54995963865065,116.81118552154777 M306.98997072141117,586.4935656289351 L306.9326256686959,525.2815600636695 M239.96153366957174,263.3359737867514 L261.8117445155041,250.90395517703456 M239.96153366957174,263.3359737867514 L237.26719374458725,261.00200821444434 M237.26719374458725,261.00200821444434 L234.69233407487596,258.6249256007725 M234.69233407487596,258.6249256007725 L232.23907095084294,256.2067142773684 M265.3006343923745,742.2034795101849 L244.8112690480164,754.0095066694828 M244.7658481706797,727.7574774317054 L244.8112690480164,754.0095066694828 M244.7658481706797,727.7574774317054 L239.45000140411832,730.8184337564999 M239.45000140411832,730.8184337564999 L239.3397451523105,669.4930287446821 M262.4214194521498,656.2229827994047 L239.3397451523105,669.4930287446821 M239.96153366957174,263.3359737867514 L238.60398419804807,260.2569285490431 M238.46742213316583,184.3000208831902 L238.60398419804807,260.2569285490431 M238.46742213316583,184.3000208831902 L243.82030740606012,181.26068446339002 M243.77422181267525,154.6244674653786 L243.82030740606012,181.26068446339002 M243.77422181267525,154.6244674653786 L264.4201569151881,142.90990180215806 M264.4201569151881,142.90990180215806 L265.3006343923745,742.2034795101849 M229.15853995250754,667.5592108667772 L233.750451361634,671.6473961427591 M233.750451361634,671.6473961427591 L238.67572039588714,675.6056913954775 M238.67572039588714,675.6056913954775 L243.92329668295133,679.4250670242276 M239.3397451523105,669.4930287446821 L243.92329668295133,679.4250670242276 M297.29981486786625,293.3749401987959 L293.0569986830578,291.96865590451864 M293.0569986830578,291.96865590451864 L288.8873796144102,290.4933069200147 M288.8873796144102,290.4933069200147 L284.79443167638175,288.9501293258845 M306.64468798981125,276.5016918639115 L284.79443167638175,288.9501293258845 M238.60398419804807,260.2569285490431 L243.18734753679422,256.26140429011343 M243.18734753679422,256.26140429011343 L247.97016912527158,248.84551214384015 M247.97016912527158,248.84551214384015 L266.0891585453293,269.34277407651086 M266.0891585453293,269.34277407651086 L283.43905773922006,285.8708061110533 M283.43905773922006,285.8708061110533 L284.79443167638175,288.9501293258845 M226.87068595310296,163.73457643638778 L243.35130918250036,154.38353749327396 M243.35130918250036,154.38353749327396 L243.3975367720176,181.01966972253783 M226.9224707277039,190.373997992005 L243.3975367720176,181.01966972253783 M288.6984035755625,206.84496550676909 L283.34550614414144,209.8883205721978 M283.34550614414144,209.8883205721978 L247.89566794406215,204.47805752397406 M247.89566794406215,204.47805752397406 L238.46742213316583,184.3000208831902 M243.3975367720176,181.01966972253783 L243.82030740606012,181.26068446339002 M289.12173845260793,207.08630191348504 L272.64663247190947,216.4532329559628 M288.6984035755625,206.84496550676909 L289.12173845260793,207.08630191348504 M289.09087853703596,180.44100748206526 L272.6102153309008,189.80464901135105 M289.09087853703596,180.44100748206526 L289.12173845260793,207.08630191348504 M309.3133781085801,168.46969879086117 L288.6674012841956,180.19975584890517 M299.8522436177377,148.3085094296352 L309.3133781085801,168.46969879086117 M264.4201569151881,142.90990180215806 L299.8522436177377,148.3085094296352 M243.35130918250036,154.38353749327396 L243.77422181267525,154.6244674653786 M288.6674012841956,180.19975584890517 L289.09087853703596,180.44100748206526 M283.94308740538116,695.2430545271104 L307.02480954304656,681.9555727175837 M266.70410207063753,692.5791338193875 L283.94308740538116,695.2430545271104 M266.70410207063753,692.5791338193875 L273.32655667195394,695.6133351656798 M273.32655667195394,695.6133351656798 L280.1930875117991,698.462948285983 M280.1930875117991,698.462948285983 L287.2881249398648,701.1214698621768 M284.01861764803476,756.588620739497 L289.3344763229066,753.5236451579028 M289.36503116003826,779.784286082825 L289.3344763229066,753.5236451579028 M289.36503116003826,779.784286082825 L309.85443728567867,767.9627648752007 M309.85443728567867,767.9627648752007 L309.3133781085801,168.46969879086117 M288.6984035755625,206.84496550676909 L288.6674012841956,180.19975584890517 M283.34550614414144,209.8883205721978 L283.43905773922006,285.8708061110533 M284.01861764803476,756.588620739497 L283.94308740538116,695.2430545271104 M527.8287648574611,716.641958118989 L527.7796556614802,742.8902687878724 M535.0776507818618,717.7616531057798 L535.1980240746212,656.4464730797706 M536.1503886764632,171.3354848054336 L536.0012963694888,247.2794208153682 M528.9009120916605,143.59136904010592 L528.851084408263,170.22370311937226 M500.74089996086786,139.30515928519105 L499.83287530650216,738.570582067449 M266.70410207063753,692.5791338193875 L248.74005708495912,707.3344724432477 M248.74005708495912,707.3344724432477 L243.92329668295133,679.4250670242276 M239.45000140411832,730.8184337564999 L248.8136145520479,751.1399199547387 M248.8136145520479,751.1399199547387 L284.01861764803476,756.588620739497 M289.7548900529915,753.766696181299 L289.3344763229066,753.5236451579028 M273.3938001256068,763.2001600558798 L289.7548900529915,753.766696181299 M244.34599092219452,727.5147481233548 L227.98494010925555,736.9356073295592 M244.7658481706797,727.7574774317054 L244.34599092219452,727.5147481233548 M244.39155175168753,753.766696181299 L228.03597779165756,763.1907054198161 M244.39155175168753,753.766696181299 L244.34599092219452,727.5147481233548 M300.464639282528,747.644243502792 L265.3006343923745,742.2034795101849 M309.85443728567867,767.9627648752007 L300.464639282528,747.644243502792 M289.78530456648457,780.0274182860542 L289.36503116003826,779.784286082825 M273.4296915312058,789.4640321914303 L289.78530456648457,780.0274182860542 M244.8112690480164,754.0095066694828 L244.39155175168753,753.766696181299 M289.78530456648457,780.0274182860542 L289.7548900529915,753.766696181299 M248.8136145520479,751.1399199547387 L248.74005708495912,707.3344724432477 M247.89566794406215,204.47805752397406 L247.97016912527158,248.84551214384015 M300.464639282528,747.644243502792 L299.8522436177377,148.3085094296352" stroke="black"  stroke-width="4"  fill="red"/></svg>